<svg width="26" height="24" viewBox="0 0 26 24" fill="none" xmlns="http://www.w3.org/2000/svg">
<path d="M12.9976 23.9976C10.5225 23.9976 8.04686 23.9938 5.5717 24C4.78616 24.0019 4.02837 23.8825 3.30586 23.5665C1.83215 22.9213 0.830697 21.8309 0.291638 20.3103C0.0898428 19.7413 -0.000468556 19.1525 1.8276e-06 18.5476C0.00141298 14.1791 0.00329451 9.81051 1.8276e-06 5.44197C-0.00187971 3.07863 1.55885 0.848412 4.02319 0.18143C4.50251 0.0516343 4.99124 0 5.48703 0C10.5004 0.000947417 15.5137 0.00142113 20.5271 0C21.8987 0 23.1133 0.435812 24.1467 1.34154C25.1401 2.21222 25.7394 3.31407 25.9421 4.62719C25.9802 4.87494 25.9962 5.12884 25.9962 5.38038C25.9995 9.7963 25.9958 14.2122 26 18.6276C26.0019 20.7063 24.6853 22.7901 22.5836 23.6168C21.887 23.8906 21.1687 24.0014 20.425 24C17.9499 23.9952 15.4742 23.9981 12.9991 23.9981L12.9976 23.9976ZM2.1633 7.08195C2.15718 7.2089 2.15107 7.27096 2.15107 7.33301C2.15107 11.0701 2.15013 14.8072 2.15107 18.5443C2.15107 19.522 2.52032 20.3425 3.23671 20.9934C3.87973 21.5779 4.64739 21.8332 5.51713 21.8318C10.506 21.8252 15.4949 21.829 20.4843 21.8266C20.7101 21.8266 20.9406 21.82 21.1616 21.7764C22.3621 21.5414 23.1904 20.8427 23.6471 19.703C23.8198 19.2728 23.8565 18.8181 23.8565 18.3572C23.8546 15.1089 23.8555 11.8607 23.8555 8.6125C23.8555 8.17906 23.8565 7.74514 23.8546 7.31169C23.8546 7.25438 23.8405 7.19706 23.8273 7.09758C23.7318 7.19137 23.6655 7.25532 23.6006 7.3207C21.4189 9.51776 19.2378 11.7148 17.0556 13.9114C16.9174 14.0507 16.78 14.1918 16.6318 14.3207C15.2724 15.5031 13.7079 15.9484 11.9388 15.6139C10.8282 15.4036 9.8917 14.8602 9.09581 14.0573C6.8662 11.8086 4.63281 9.56323 2.40084 7.31691C2.33593 7.25153 2.27007 7.18806 2.16235 7.08242L2.1633 7.08195ZM23.617 4.22738C23.5658 4.11511 23.5272 4.01136 23.4736 3.91662C22.8376 2.78635 21.8761 2.19422 20.5835 2.17006C19.8789 2.15727 19.1738 2.16722 18.4687 2.16722C14.1449 2.16722 9.82162 2.16959 5.49785 2.16532C4.69114 2.16438 3.9738 2.39981 3.34631 2.91094C2.91168 3.26527 2.60075 3.70914 2.36791 4.27285C2.44223 4.3297 2.52455 4.37944 2.59087 4.44576C5.24525 7.11511 7.89775 9.78588 10.5507 12.4562C10.6283 12.5343 10.7041 12.6144 10.7859 12.6873C11.6439 13.451 12.6355 13.7101 13.7526 13.4685C14.4083 13.3264 14.946 12.9725 15.4149 12.4998C18.0881 9.80482 20.7623 7.11132 23.4364 4.41733C23.4914 4.36191 23.5446 4.30412 23.617 4.22738Z" fill="#969696"/>
</svg>
