<svg width="20" height="20" viewBox="0 0 20 20" fill="none" xmlns="http://www.w3.org/2000/svg">
<path d="M4.11822 4.16641C4.1135 4.15222 4.10877 4.13802 4.10404 4.12541C4.12611 4.10017 4.14502 4.07178 4.17025 4.04813C4.97424 3.2722 5.89017 2.67133 6.93221 2.26286C8.20914 1.76293 9.52706 1.58472 10.8923 1.73139C11.6064 1.80866 12.2985 1.97268 12.9685 2.22974C14.1272 2.67448 15.1377 3.34317 15.9984 4.23896C16.7346 5.00542 17.3069 5.88071 17.7073 6.86481C18.0935 7.81422 18.3001 8.80148 18.3205 9.82817C18.341 10.8675 18.1787 11.8737 17.8255 12.8499C17.4141 13.9885 16.7819 14.9884 15.9338 15.8527C14.9769 16.8273 13.845 17.5212 12.5476 17.9423C11.4314 18.305 10.2901 18.4186 9.12191 18.2987C8.36521 18.2199 7.63373 18.0448 6.92905 17.7625C5.65054 17.2515 4.55648 16.4803 3.66263 15.43C2.57172 14.1494 1.92695 12.6732 1.72043 11.0063C1.67629 10.6561 1.67156 10.2997 1.64949 9.94645C1.61638 9.40708 1.08512 9.04908 0.571191 9.21941C0.208606 9.33927 -0.00421641 9.64838 0.00208943 10.0663C0.0147011 10.8722 0.104559 11.6686 0.307923 12.4493C0.845495 14.5011 1.90488 16.2327 3.5239 17.6095C5.22175 19.0541 7.19232 19.8364 9.4104 19.9799C10.4051 20.0446 11.392 19.9594 12.3615 19.7165C13.9159 19.327 15.3079 18.6236 16.525 17.5748C17.6348 16.6191 18.4924 15.4757 19.0993 14.1462C19.6022 13.047 19.8923 11.891 19.9758 10.6829C20.0373 9.79978 19.9837 8.92449 19.8103 8.05867C19.5864 6.93263 19.1844 5.87125 18.5933 4.88557C17.9548 3.82103 17.1508 2.90159 16.1734 2.13512C15.3347 1.47747 14.4157 0.968071 13.4146 0.60534C12.4987 0.272574 11.5544 0.0707077 10.5833 0.0202408C9.86915 -0.0176094 9.15501 0.00762464 8.44718 0.124329C7.71098 0.245765 6.99526 0.438167 6.3032 0.717312C5.26589 1.13524 4.32001 1.70773 3.47345 2.44108C3.43562 2.47419 3.39305 2.501 3.33157 2.54832C3.32684 2.46315 3.32211 2.40638 3.32211 2.3496C3.32211 1.88909 3.32211 1.42858 3.32211 0.968069C3.32211 0.890792 3.32211 0.815093 3.31423 0.737815C3.28428 0.412934 3.06042 0.141676 2.74198 0.0438962C2.42984 -0.0538834 2.08144 0.0470515 1.87492 0.291501C1.71728 0.477597 1.66683 0.696809 1.66525 0.933373C1.66525 1.70615 1.6621 2.4805 1.66525 3.25328C1.66841 3.84942 1.82921 4.39666 2.20598 4.86664C2.66158 5.43439 3.25117 5.78135 3.9795 5.80659C4.88123 5.83813 5.78612 5.8192 6.68943 5.81447C7.11507 5.81132 7.46189 5.47697 7.4887 5.06535C7.51865 4.62377 7.22227 4.25157 6.78875 4.18849C6.69574 4.1743 6.60115 4.16957 6.50656 4.16957C5.77981 4.16957 5.05464 4.16957 4.32789 4.16957C4.25853 4.16957 4.18917 4.16957 4.1198 4.16957L4.11822 4.16641ZM10.8245 7.6707C10.8245 7.05091 10.8308 6.43111 10.8229 5.81132C10.8182 5.38393 10.4903 5.0417 10.0757 5.00858C9.64529 4.97388 9.27325 5.25933 9.196 5.68673C9.18024 5.77347 9.17393 5.86179 9.17393 5.9501C9.17393 7.26066 9.17708 8.57123 9.17078 9.88179C9.17078 10.1988 9.2764 10.4495 9.50026 10.6703C10.2806 11.4415 11.0546 12.2222 11.8318 12.9981C11.8823 13.0486 11.9327 13.0991 11.9895 13.1416C12.2528 13.3372 12.5412 13.3766 12.8408 13.2394C13.1324 13.1038 13.2869 12.8641 13.3137 12.5439C13.3358 12.2632 13.2175 12.044 13.0236 11.8516C12.3284 11.1608 11.6379 10.4653 10.9411 9.77612C10.8592 9.69411 10.8245 9.61368 10.8261 9.49698C10.8308 8.88822 10.8276 8.28104 10.8276 7.67228L10.8245 7.6707Z" fill="white"/>
<path d="M4.11785 4.16566C4.18721 4.16566 4.25658 4.16566 4.32594 4.16566C5.05269 4.16566 5.77786 4.16566 6.50461 4.16566C6.5992 4.16566 6.69378 4.17197 6.78679 4.18459C7.2219 4.24767 7.5167 4.62144 7.48674 5.06145C7.45837 5.47307 7.11155 5.80899 6.68748 5.81057C5.78417 5.8153 4.87928 5.83422 3.97754 5.80268C3.24922 5.77745 2.65962 5.43049 2.20403 4.86274C1.82725 4.39119 1.66645 3.84551 1.6633 3.24937C1.65857 2.4766 1.6633 1.70225 1.6633 0.929471C1.6633 0.692908 1.71532 0.473691 1.87297 0.287594C2.08106 0.0431453 2.42788 -0.0562078 2.74002 0.0399947C3.05847 0.139351 3.28233 0.409033 3.31228 0.733914C3.31858 0.809614 3.32016 0.88689 3.32016 0.964167C3.32016 1.42468 3.32016 1.88519 3.32016 2.3457C3.32016 2.40248 3.32489 2.45925 3.32962 2.54441C3.3911 2.49867 3.43366 2.47029 3.4715 2.43717C4.31806 1.70382 5.26236 1.13134 6.30124 0.713411C6.99331 0.434266 7.70902 0.240282 8.44523 0.120423C9.15306 0.00371839 9.8672 -0.0215156 10.5813 0.0163345C11.554 0.0668014 12.4967 0.268672 13.4127 0.601439C14.4137 0.965746 15.3344 1.47514 16.1715 2.13121C17.1489 2.89768 17.9529 3.81712 18.5913 4.88166C19.1825 5.86892 19.5845 6.92872 19.8083 8.05476C19.9818 8.92059 20.0354 9.79588 19.9739 10.679C19.8903 11.8871 19.6003 13.0431 19.0974 14.1423C18.4904 15.4718 17.6328 16.6152 16.523 17.5709C15.306 18.6197 13.914 19.3231 12.3596 19.7126C11.3901 19.9555 10.4016 20.0391 9.40845 19.976C7.18879 19.8325 5.21822 19.0502 3.52195 17.6056C1.90292 16.2288 0.843542 14.4972 0.30597 12.4454C0.10103 11.6647 0.012748 10.8683 0.000136304 10.0624C-0.00616953 9.64605 0.206653 9.33694 0.569238 9.21551C1.08316 9.04518 1.61443 9.40318 1.64754 9.94254C1.66961 10.2958 1.67434 10.6522 1.71848 11.0023C1.92499 12.6693 2.56977 14.1455 3.66068 15.4261C4.5561 16.4764 5.64859 17.2476 6.9271 17.7586C7.63178 18.0409 8.36325 18.216 9.11995 18.2948C10.2865 18.4163 11.4295 18.3011 12.5456 17.9384C13.843 17.5173 14.9749 16.8234 15.9318 15.8487C16.78 14.9845 17.4121 13.9846 17.8236 12.846C18.1751 11.8697 18.3391 10.8636 18.3186 9.82426C18.2981 8.79757 18.09 7.81032 17.7054 6.86091C17.3049 5.87681 16.7343 5.00152 15.9965 4.23505C15.1357 3.33926 14.1252 2.67058 12.9665 2.22584C12.2981 1.96877 11.6045 1.80476 10.8903 1.72748C9.52668 1.57923 8.20718 1.75902 6.93025 2.25896C5.88821 2.66742 4.97229 3.2683 4.16829 4.04423C4.14465 4.06788 4.12415 4.09627 4.10208 4.1215C4.10681 4.13569 4.11154 4.14989 4.11627 4.16251L4.11785 4.16566Z" fill="#EFF6FF"/>
<path d="M10.8248 7.67046C10.8248 8.27922 10.828 8.8864 10.8233 9.49515C10.8233 9.61028 10.8564 9.69229 10.9384 9.7743C11.6351 10.4635 12.3256 11.159 13.0209 11.8497C13.2148 12.0422 13.3346 12.2614 13.3109 12.5421C13.2841 12.8622 13.1312 13.102 12.838 13.2376C12.5385 13.3764 12.2515 13.3369 11.9867 13.1398C11.9299 13.0972 11.8795 13.0468 11.8291 12.9963C11.0519 12.2204 10.2778 11.4413 9.49747 10.6685C9.27361 10.4477 9.16641 10.197 9.16799 9.87996C9.17429 8.5694 9.16956 7.25884 9.17114 5.94828C9.17114 5.85996 9.17745 5.77164 9.19321 5.6849C9.27046 5.25751 9.6425 4.97206 10.0729 5.00676C10.4875 5.03987 10.8154 5.3821 10.8201 5.80949C10.828 6.42929 10.8217 7.04909 10.8217 7.66888L10.8248 7.67046Z" fill="#EFF6FF"/>
</svg>
