<svg width="20" height="20" viewBox="0 0 20 20" fill="none" xmlns="http://www.w3.org/2000/svg">
<path id="Vector" d="M18.3309 4.77433V1.67355C18.3309 1.21568 17.96 0.838948 17.4964 0.838948C17.0327 0.838948 16.6618 1.20988 16.6618 1.67355V3.64413L12.3269 0.717235C10.9128 -0.239079 9.08143 -0.239079 7.66734 0.717235L1.83715 4.65261C0.689655 5.42926 0 6.71593 0 8.10693V15.8328C0 18.1279 1.86613 20 4.16691 20H6.66474C7.12257 20 7.49928 19.6291 7.49928 19.1654V12.5002C7.49928 12.0423 7.87018 11.6656 8.33382 11.6656H11.6662C12.124 11.6656 12.5007 12.0423 12.5007 12.5002V19.1654C12.5007 19.6233 12.8716 20 13.3353 20H15.8331C18.1281 20 20 18.1337 20 15.8328V8.10693C20 6.79128 19.3799 5.55676 18.3367 4.77433H18.3309ZM18.3309 15.8328C18.3309 17.2122 17.2124 18.3308 15.8331 18.3308H14.1698V12.5002C14.1698 11.1208 13.0513 10.0022 11.672 10.0022H8.33961C6.9603 10.0022 5.84179 11.1208 5.84179 12.5002V18.3308H4.1785C2.79919 18.3308 1.68067 17.2122 1.68067 15.8328V8.10693C1.68067 7.27233 2.09215 6.50149 2.7818 6.03782L8.612 2.10244C9.46392 1.52865 10.5593 1.52865 11.4054 2.10244L17.2356 6.03782C17.9252 6.50149 18.3367 7.27813 18.3367 8.10693V15.8328H18.3309Z" fill="#969696"/>
</svg>
