<svg width="50" height="49" viewBox="0 0 50 49" fill="none" xmlns="http://www.w3.org/2000/svg">
<path d="M6.09728 42.8719C6.25575 43.0619 6.33319 43.1637 6.42053 43.2573C7.10666 43.9903 7.79459 44.7223 8.48342 45.4535C8.8751 45.8695 9.14163 46.3395 9.14613 46.9311C9.15244 47.7541 8.68151 48.5302 7.93866 48.8211C7.13277 49.1371 6.36471 49.0435 5.729 48.4267C5.18064 47.8954 4.6719 47.3228 4.14695 46.7672C3.13757 45.7002 2.12909 44.6314 1.1197 43.5644C0.387655 42.7909 -0.0157375 41.886 0.000470195 40.8073C0.0157775 39.8015 0.37775 38.9362 1.06028 38.2068C2.40192 36.7733 3.74986 35.3452 5.0978 33.9172C5.33371 33.6668 5.56603 33.4093 5.82715 33.186C6.62133 32.5089 7.74506 32.5341 8.49242 33.2292C9.25869 33.9415 9.37214 35.0769 8.74004 35.9179C8.51583 36.216 8.24841 36.4825 7.99268 36.7562C7.45062 37.337 6.90226 37.9115 6.3575 38.4905C6.28817 38.5643 6.22784 38.6453 6.12249 38.7723C6.27016 38.7912 6.36561 38.8137 6.46015 38.8137C12.6074 38.8119 18.7555 38.8407 24.9028 38.793C28.1965 38.7678 31.1157 37.6062 33.6477 35.5073C36.2212 33.3742 37.8437 30.6549 38.5335 27.3873C38.9639 25.3496 38.926 23.311 38.4632 21.2805C38.3633 20.8429 38.2624 20.4089 38.3813 19.9515C38.6109 19.0664 39.342 18.446 40.2479 18.3938C41.1042 18.3442 41.9524 18.8854 42.2324 19.7264C42.4017 20.2351 42.5061 20.7691 42.598 21.2985C42.8114 22.5258 42.9185 23.7639 42.8753 25.0119C42.7961 27.3404 42.3387 29.5879 41.3914 31.7237C39.2682 36.5104 35.7556 39.8483 30.8708 41.7284C28.7062 42.5613 26.4452 42.8782 24.1302 42.8746C18.3422 42.8656 12.5552 42.8719 6.7672 42.8719C6.57811 42.8719 6.38812 42.8719 6.09458 42.8719H6.09728Z" fill="#D4D2D5"/>
<path d="M42.9191 10.1829C42.676 10.1829 42.5418 10.1829 42.4086 10.1829C36.4261 10.1829 30.4436 10.1694 24.4612 10.1883C20.9711 10.1991 17.8655 11.3408 15.2201 13.6126C12.4513 15.9898 10.7927 19.0053 10.3073 22.6385C10.075 24.3782 10.1552 26.1043 10.5676 27.8133C10.6693 28.2365 10.7422 28.6606 10.6162 29.0982C10.3587 29.9932 9.6149 30.5911 8.71628 30.6028C7.76452 30.6154 6.96674 30.0761 6.73893 29.1549C6.51653 28.2563 6.34725 27.3388 6.23109 26.4203C6.0384 24.8968 6.08702 23.3661 6.31393 21.8498C6.64709 19.623 7.34492 17.5124 8.46326 15.5504C10.5117 11.9567 13.4264 9.31128 17.2154 7.64818C18.9533 6.88462 20.7712 6.38668 22.6702 6.23901C23.4311 6.17958 24.1965 6.14447 24.96 6.14357C30.7327 6.13546 36.5053 6.13906 42.2771 6.13906H42.8804C42.7948 6.0031 42.7552 5.91396 42.6922 5.84642C41.9763 5.07926 41.2578 4.31479 40.5366 3.55213C40.1314 3.12442 39.8531 2.63999 39.8648 2.0331C39.8819 1.21191 40.2529 0.588814 40.9895 0.225941C41.7224 -0.134231 42.4428 -0.0603954 43.1073 0.423135C43.2396 0.519481 43.3603 0.635637 43.4729 0.755394C44.9829 2.35996 46.4803 3.97713 48.002 5.56999C49.2446 6.87021 49.4301 9.1483 48.0759 10.6511C47.1124 11.7199 46.1111 12.7536 45.1251 13.8017C44.5192 14.4455 43.9222 15.0992 43.2955 15.7232C42.5661 16.449 41.4892 16.5057 40.6698 15.897C39.7937 15.2451 39.5938 14.0259 40.2259 13.1363C40.3727 12.9301 40.5501 12.7428 40.7238 12.5582C41.3605 11.8811 42.0025 11.2085 42.64 10.5332C42.7183 10.4503 42.7831 10.3549 42.9182 10.1838L42.9191 10.1829Z" fill="#D4D2D5"/>
<path d="M22.8805 16.7649C22.8805 16.4921 22.8751 16.2859 22.8814 16.0797C22.8913 15.7357 22.8805 15.3873 22.9291 15.0487C23.0417 14.2653 23.7035 13.7125 24.4913 13.7071C25.2792 13.7026 25.9437 14.2428 26.0806 15.0199C26.1247 15.2684 26.1283 15.5259 26.1355 15.7798C26.1445 16.0905 26.1373 16.402 26.1373 16.7694C26.375 16.7694 26.5659 16.7658 26.7559 16.7694C28.1138 16.8009 29.26 17.3061 30.1785 18.311C30.734 18.9196 30.77 19.7165 30.2802 20.3657C29.8282 20.9636 28.9206 21.1968 28.256 20.8646C28.0868 20.7799 27.9355 20.6422 27.8067 20.4999C27.4934 20.1532 27.099 19.993 26.6479 19.9903C25.1784 19.9804 23.7089 19.9777 22.2385 19.9903C21.5704 19.9966 21.0787 20.463 21.0256 21.0852C20.9743 21.6804 21.3597 22.2035 22.0071 22.3467C23.0309 22.5727 24.0609 22.7663 25.0883 22.9752C25.969 23.1544 26.855 23.3083 27.7284 23.5199C28.9107 23.8072 29.8597 24.4618 30.5377 25.4784C32.0766 27.7844 30.9943 31.3492 27.8157 32.1199C27.4268 32.2145 27.0144 32.2163 26.6128 32.2568C26.4804 32.2703 26.3462 32.273 26.1643 32.2838C26.1544 32.4522 26.1436 32.6098 26.1373 32.7674C26.1193 33.1707 26.14 33.5795 26.0788 33.9766C25.9545 34.787 25.2756 35.3201 24.4589 35.2976C23.6594 35.2751 23.03 34.7285 22.9246 33.9271C22.8778 33.5723 22.8904 33.2095 22.8805 32.8511C22.8751 32.6746 22.8805 32.4981 22.8805 32.2928C22.5194 32.2658 22.2088 32.2469 21.8981 32.219C20.6276 32.1046 19.5723 31.5581 18.7457 30.5937C18.3378 30.1174 18.3 29.5546 18.5413 28.9883C18.7826 28.4219 19.2202 28.0779 19.8406 28.014C20.3692 27.96 20.8536 28.059 21.2147 28.5074C21.5082 28.8712 21.9143 29.0081 22.3699 29.009C23.825 29.0117 25.2792 28.9973 26.7343 29.0162C27.3601 29.0243 27.9193 28.5723 27.9814 27.9609C28.0471 27.3117 27.6519 26.7822 26.963 26.6417C25.1586 26.2744 23.3505 25.9178 21.5451 25.5522C20.4025 25.3208 19.4336 24.7778 18.7124 23.8567C16.8224 21.4418 17.9479 17.8851 20.8923 16.9684C21.2876 16.8451 21.7135 16.8162 22.1286 16.7658C22.3483 16.7397 22.5734 16.7613 22.8814 16.7613L22.8805 16.7649Z" fill="#D4D2D5"/>
</svg>
