<svg width="40" height="40" viewBox="0 0 48 48" fill="none" xmlns="http://www.w3.org/2000/svg">
<g filter="url(#filter0_d_2981_36913)">
<rect x="4.5" y="3.5" width="39" height="39" rx="5.5" fill="white"/>
<rect x="4.5" y="3.5" width="39" height="39" rx="5.5" stroke="#D4D2D5"/>
</g>
<path d="M23.9976 34.9976C21.5225 34.9976 19.0469 34.9938 16.5717 35C15.7862 35.0019 15.0284 34.8825 14.3059 34.5665C12.8321 33.9213 11.8307 32.8309 11.2916 31.3103C11.0898 30.7413 10.9995 30.1525 11 29.5476C11.0014 25.1791 11.0033 20.8105 11 16.442C10.9981 14.0786 12.5589 11.8484 15.0232 11.1814C15.5025 11.0516 15.9912 11 16.487 11C21.5004 11.0009 26.5137 11.0014 31.5271 11C32.8987 11 34.1133 11.4358 35.1467 12.3415C36.1401 13.2122 36.7394 14.3141 36.9421 15.6272C36.9802 15.8749 36.9962 16.1288 36.9962 16.3804C36.9995 20.7963 36.9958 25.2122 37 29.6276C37.0019 31.7063 35.6853 33.7901 33.5836 34.6168C32.887 34.8906 32.1687 35.0014 31.425 35C28.9499 34.9952 26.4742 34.9981 23.9991 34.9981L23.9976 34.9976ZM13.1633 18.0819C13.1572 18.2089 13.1511 18.271 13.1511 18.333C13.1511 22.0701 13.1501 25.8072 13.1511 29.5443C13.1511 30.522 13.5203 31.3425 14.2367 31.9934C14.8797 32.5779 15.6474 32.8332 16.5171 32.8318C21.506 32.8252 26.4949 32.829 31.4843 32.8266C31.7101 32.8266 31.9406 32.82 32.1616 32.7764C33.3621 32.5414 34.1904 31.8427 34.6471 30.703C34.8198 30.2728 34.8565 29.8181 34.8565 29.3572C34.8546 26.1089 34.8555 22.8607 34.8555 19.6125C34.8555 19.1791 34.8565 18.7451 34.8546 18.3117C34.8546 18.2544 34.8405 18.1971 34.8273 18.0976C34.7318 18.1914 34.6655 18.2553 34.6006 18.3207C32.4189 20.5178 30.2378 22.7148 28.0556 24.9114C27.9174 25.0507 27.78 25.1918 27.6318 25.3207C26.2724 26.5031 24.7079 26.9484 22.9388 26.6139C21.8282 26.4036 20.8917 25.8602 20.0958 25.0573C17.8662 22.8086 15.6328 20.5632 13.4008 18.3169C13.3359 18.2515 13.2701 18.1881 13.1624 18.0824L13.1633 18.0819ZM34.617 15.2274C34.5658 15.1151 34.5272 15.0114 34.4736 14.9166C33.8376 13.7864 32.8761 13.1942 31.5835 13.1701C30.8789 13.1573 30.1738 13.1672 29.4687 13.1672C25.1449 13.1672 20.8216 13.1696 16.4978 13.1653C15.6911 13.1644 14.9738 13.3998 14.3463 13.9109C13.9117 14.2653 13.6008 14.7091 13.3679 15.2729C13.4422 15.3297 13.5246 15.3794 13.5909 15.4458C16.2453 18.1151 18.8977 20.7859 21.5507 23.4562C21.6283 23.5343 21.7041 23.6144 21.7859 23.6873C22.6439 24.451 23.6355 24.7101 24.7526 24.4685C25.4083 24.3264 25.946 23.9725 26.4149 23.4998C29.0881 20.8048 31.7623 18.1113 34.4364 15.4173C34.4914 15.3619 34.5446 15.3041 34.617 15.2274Z" fill="#969696"/>
<defs>
<filter id="filter0_d_2981_36913" x="0" y="0" width="48" height="48" filterUnits="userSpaceOnUse" color-interpolation-filters="sRGB">
<feFlood flood-opacity="0" result="BackgroundImageFix"/>
<feColorMatrix in="SourceAlpha" type="matrix" values="0 0 0 0 0 0 0 0 0 0 0 0 0 0 0 0 0 0 127 0" result="hardAlpha"/>
<feOffset dy="1"/>
<feGaussianBlur stdDeviation="2"/>
<feComposite in2="hardAlpha" operator="out"/>
<feColorMatrix type="matrix" values="0 0 0 0 0 0 0 0 0 0 0 0 0 0 0 0 0 0 0.15 0"/>
<feBlend mode="normal" in2="BackgroundImageFix" result="effect1_dropShadow_2981_36913"/>
<feBlend mode="normal" in="SourceGraphic" in2="effect1_dropShadow_2981_36913" result="shape"/>
</filter>
</defs>
</svg>
