<svg width="48" height="48" viewBox="0 0 48 48" fill="none" xmlns="http://www.w3.org/2000/svg">
<circle cx="24" cy="24" r="24" fill="#E1D4E4"/>
<path d="M19.5391 28.9992C16.8735 29.0063 14.6116 30.8555 14.0968 33.4082C14.0016 33.8824 13.9822 34.3637 13.9822 34.845C13.9822 35.0019 13.9734 35.1641 13.9294 35.3139C13.7866 35.7881 13.3158 36.0649 12.8134 35.9856C12.3727 35.9151 12.0201 35.5026 12.006 35.0389C11.9742 34.0429 12.0641 33.0627 12.3991 32.116C13.1572 29.967 14.5869 28.4474 16.6884 27.566C17.6633 27.157 18.6859 26.9754 19.7419 27.0177C21.6142 27.0918 23.252 27.7599 24.6253 29.038C25.8964 30.2227 26.6492 31.6894 26.9207 33.4029C27.0071 33.9459 27.0247 34.4924 27.0036 35.0407C26.9842 35.5202 26.6139 35.9309 26.1714 35.9891C25.5861 36.0667 25.1577 35.6859 25.0625 35.2751C25.0255 35.1165 25.0167 34.949 25.0167 34.785C25.0184 34.2756 25.0079 33.7661 24.8756 33.2725C24.2903 31.0777 22.9011 29.6867 20.6904 29.1332C20.4806 29.0803 20.2637 29.0503 20.0469 29.0257C19.8635 29.0045 19.6784 29.0063 19.5427 28.9992H19.5391Z" fill="#969696"/>
<path d="M19.5052 24.9929C17.0088 24.9876 15.0202 22.9762 15.0079 20.5205C14.9955 18.1018 16.9101 16.0074 19.4982 16.0039C22.0721 16.0004 23.9832 18.0718 23.999 20.4711C24.0149 22.8827 22.0774 24.97 19.507 24.9912L19.5052 24.9929ZM19.507 17.9942C18.2235 17.9748 17.0036 18.9973 16.9965 20.4887C16.9895 21.9378 18.153 22.9973 19.4893 23.0061C20.8133 23.0132 22.0104 21.9801 22.0104 20.4975C22.0104 18.992 20.7834 17.9784 19.5087 17.9942H19.507Z" fill="#969696"/>
<path d="M25.0156 16.471C25.0474 13.9589 27.0748 11.9704 29.5782 12.0003C32.064 12.0303 34.0685 14.0858 34.0068 16.5997C33.9415 19.1806 31.8084 21.0246 29.4477 20.9894C27.0254 20.9523 25.0121 18.9814 25.0174 16.471H25.0156ZM32.0146 16.501C32.0481 15.2194 30.985 13.9977 29.52 13.9924C28.129 13.9854 27.0025 15.1101 27.0043 16.5045C27.006 17.8849 28.1326 19.0167 29.513 19.0061C31.0274 18.9938 32.0446 17.7456 32.0146 16.5028V16.501Z" fill="#969696"/>
<path d="M28.7979 23.0078C30.4992 23.0078 31.899 23.4556 33.1419 24.3617C34.1485 25.0951 34.9048 26.04 35.4108 27.1841C35.7969 28.0585 35.9943 28.9752 35.9996 29.929C35.9996 30.0841 35.9802 30.2498 35.9238 30.3926C35.7634 30.8086 35.305 31.0555 34.8678 30.9885C34.4165 30.9179 34.0586 30.546 34.0339 30.0876C34.0092 29.6328 33.9793 29.178 33.8541 28.7372C33.3781 27.0607 32.3344 25.8761 30.6878 25.2996C28.9231 24.6826 27.2835 24.9875 25.8114 26.1511C25.688 26.248 25.5646 26.3538 25.4253 26.4243C25.011 26.6359 24.4892 26.5089 24.2177 26.144C23.925 25.7509 23.9215 25.2255 24.26 24.8924C24.535 24.6209 24.8488 24.3829 25.1697 24.1643C26.0001 23.6001 26.9256 23.2581 27.9129 23.096C28.2567 23.0395 28.6075 23.0254 28.7979 23.0078Z" fill="#969696"/>
</svg>
