<svg width="32" height="32" viewBox="0 0 32 32" fill="none" xmlns="http://www.w3.org/2000/svg">
<circle opacity="0.2" cx="16" cy="16" r="15.5" fill="#EFF6FF" stroke="#EFF6FF"/>
<g clip-path="url(#clip0_2877_15925)">
<path fill-rule="evenodd" clip-rule="evenodd" d="M9.14258 16.0017C9.14258 12.2145 12.2125 9.14453 15.9997 9.14453C19.7869 9.14453 22.8569 12.2145 22.8569 16.0017C22.8569 19.7889 19.7869 22.8588 15.9997 22.8588C12.2125 22.8588 9.14258 19.7889 9.14258 16.0017ZM16.6854 13.2588C16.6854 13.077 16.6132 12.9025 16.4846 12.7739C16.356 12.6453 16.1816 12.5731 15.9997 12.5731C15.8179 12.5731 15.6434 12.6453 15.5148 12.7739C15.3863 12.9025 15.314 13.077 15.314 13.2588C15.314 13.4407 15.3863 13.6151 15.5148 13.7437C15.6434 13.8723 15.8179 13.9445 15.9997 13.9445C16.1816 13.9445 16.356 13.8723 16.4846 13.7437C16.6132 13.6151 16.6854 13.4407 16.6854 13.2588ZM15.9997 19.4302C16.1816 19.4302 16.356 19.358 16.4846 19.2294C16.6132 19.1008 16.6854 18.9264 16.6854 18.7445V16.0017C16.6854 15.8198 16.6132 15.6454 16.4846 15.5168C16.356 15.3882 16.1816 15.316 15.9997 15.316C15.8179 15.316 15.6434 15.3882 15.5148 15.5168C15.3863 15.6454 15.314 15.8198 15.314 16.0017V18.7445C15.314 18.9264 15.3863 19.1008 15.5148 19.2294C15.6434 19.358 15.8179 19.4302 15.9997 19.4302Z" fill="#EFF6FF"/>
</g>
<defs>
<clipPath id="clip0_2877_15925">
<rect width="13.7143" height="13.7143" fill="white" transform="translate(9.14258 9.14453)"/>
</clipPath>
</defs>
</svg>
