<svg xmlns="http://www.w3.org/2000/svg" width="129.548" height="50.001" viewBox="0 0 129.548 50.001">
  <g id="Grupo_39" data-name="Grupo 39" transform="translate(-67.619 -171.761)">
    <g id="Grupo_9" data-name="Grupo 9" transform="translate(98.283 171.761)">
      <g id="Grupo_8" data-name="Grupo 8">
        <path id="Trazado_26" data-name="Trazado 26" d="M176.1,171.761a5.252,5.252,0,1,1-5.174,5.259A5.081,5.081,0,0,1,176.1,171.761Zm0,8.6a3.361,3.361,0,1,0-3.141-3.354A3.111,3.111,0,0,0,176.1,180.36Z" transform="translate(-170.931 -171.761)" fill="#383d42"/>
        <path id="Trazado_27" data-name="Trazado 27" d="M251.029,174.341v8.215h-1.976v-8.215H245.87v-1.862h8.343v1.862Z" transform="translate(-223.627 -172.266)" fill="#383d42"/>
        <path id="Trazado_28" data-name="Trazado 28" d="M316.931,182.556V172.479h1.99v10.077Z" transform="translate(-273.597 -172.266)" fill="#383d42"/>
        <path id="Trazado_29" data-name="Trazado 29" d="M367.688,177.02a5.086,5.086,0,0,1,5.131-5.259,4.437,4.437,0,0,1,4.619,3.34l-1.848.583a2.635,2.635,0,0,0-2.772-2.033,3.356,3.356,0,0,0,.029,6.695,2.8,2.8,0,0,0,2.828-2.061l1.833.554a4.583,4.583,0,0,1-4.662,3.425A5.032,5.032,0,0,1,367.688,177.02Z" transform="translate(-309.289 -171.761)" fill="#383d42"/>
      </g>
    </g>
    <path id="Trazado_30" data-name="Trazado 30" d="M67.752,242.41l1.254-2.215a.688.688,0,0,1,.907-.16A7.981,7.981,0,0,0,73.7,241.5a1.672,1.672,0,0,0,1.841-1.6c0-1.12-.935-1.975-2.748-2.7-2.3-.907-5.177-2.7-5.177-5.9,0-2.642,2.054-5.31,6.164-5.31a9.924,9.924,0,0,1,5.71,2,.675.675,0,0,1,.161.854l-1.362,2.055c-.186.294-.666.534-.906.347-.24-.133-2.188-1.6-3.816-1.6a1.547,1.547,0,0,0-1.681,1.361c0,.987.8,1.735,2.908,2.588,2.08.827,5.39,2.455,5.39,6.084,0,2.748-2.375,5.524-6.3,5.524a8.475,8.475,0,0,1-6-2.055C67.619,242.89,67.539,242.784,67.752,242.41Z" transform="translate(0 -38.14)" fill="#383d42"/>
    <path id="Trazado_31" data-name="Trazado 31" d="M227.836,227.406a.507.507,0,0,1,.508-.507H239.39a.506.506,0,0,1,.507.507v2.908a.506.506,0,0,1-.507.508H232v3.842h6.084a.526.526,0,0,1,.508.507v2.908a.526.526,0,0,1-.508.507H232v6.484a.525.525,0,0,1-.507.507h-3.149a.507.507,0,0,1-.508-.507Z" transform="translate(-112.663 -38.773)" fill="#383d42"/>
    <path id="Trazado_32" data-name="Trazado 32" d="M153.5,235.622a9.566,9.566,0,0,0-9.633-9.579l-.031,0v4.269l.031,0a5.324,5.324,0,1,1-5.306,5.384h-4.27a9.6,9.6,0,0,0,19.209-.074Z" transform="translate(-46.884 -38.171)" fill="#383d42"/>
    <path id="Trazado_33" data-name="Trazado 33" d="M385.356,227.406a.506.506,0,0,1,.507-.507H396.91a.507.507,0,0,1,.507.507v2.908a.507.507,0,0,1-.507.508h-7.391v3.842H395.6a.525.525,0,0,1,.507.507v2.908a.525.525,0,0,1-.507.507h-6.084v6.484a.525.525,0,0,1-.508.507h-3.149a.506.506,0,0,1-.507-.507Z" transform="translate(-223.43 -38.773)" fill="#383d42"/>
    <path id="Trazado_34" data-name="Trazado 34" d="M452.488,234.588h-.026L447.9,244.755a.994.994,0,0,1-.961.64H444a.471.471,0,0,1-.454-.693l8.352-17.958a.542.542,0,0,1,.454-.293h.267a.54.54,0,0,1,.453.293l8.352,17.958a.471.471,0,0,1-.453.693h-2.963c-.479,0-.693-.16-.933-.667Z" transform="translate(-264.313 -38.457)" fill="#006ebd"/>
    <path id="Trazado_35" data-name="Trazado 35" d="M301.446,226v4.27a5.337,5.337,0,1,1-5.309,5.457h-4.269A9.591,9.591,0,1,0,301.446,226Z" transform="translate(-157.689 -38.14)" fill="#383d42"/>
    <g id="Grupo_11" data-name="Grupo 11" transform="translate(93.389 213.788)">
      <g id="Grupo_10" data-name="Grupo 10" transform="translate(0)">
        <path id="Trazado_36" data-name="Trazado 36" d="M154.442,316.842a3.065,3.065,0,0,1,3.081-3.193,2.665,2.665,0,0,1,2.753,1.984l-.975.328a1.7,1.7,0,0,0-1.778-1.337,2.213,2.213,0,0,0,.009,4.409,1.826,1.826,0,0,0,1.821-1.346l.949.311a2.745,2.745,0,0,1-2.77,2.028A3.03,3.03,0,0,1,154.442,316.842Z" transform="translate(-154.442 -313.563)" fill="#383d42"/>
        <path id="Trazado_37" data-name="Trazado 37" d="M181.426,322.027l1.079-.164c.241-.035.31-.155.31-.3,0-.354-.242-.638-.794-.638a.81.81,0,0,0-.863.759l-.915-.207a1.646,1.646,0,0,1,1.769-1.372c1.294,0,1.786.733,1.786,1.57v2.088a3.806,3.806,0,0,0,.052.673h-.932a2.343,2.343,0,0,1-.043-.535,1.467,1.467,0,0,1-1.294.665,1.318,1.318,0,0,1-1.424-1.269A1.293,1.293,0,0,1,181.426,322.027Zm1.389.665v-.19l-1.1.164c-.311.052-.561.224-.561.57a.556.556,0,0,0,.613.544A.956.956,0,0,0,182.816,322.692Z" transform="translate(-172.525 -318.101)" fill="#383d42"/>
        <path id="Trazado_38" data-name="Trazado 38" d="M200.082,326.156v-5.842h.966v.57a1.51,1.51,0,0,1,1.338-.665,1.957,1.957,0,0,1,1.941,2.192,2.007,2.007,0,0,1-1.976,2.209,1.52,1.52,0,0,1-1.277-.578v2.114Zm2.114-5.048a1.326,1.326,0,1,0,1.131,1.3A1.168,1.168,0,0,0,202.2,321.108Z" transform="translate(-186.536 -318.183)" fill="#383d42"/>
        <path id="Trazado_39" data-name="Trazado 39" d="M221.4,313.358a.656.656,0,0,1,.656.656.652.652,0,1,1-.656-.656Zm-.492,6.334v-4.2h.993v4.2Z" transform="translate(-201.068 -313.358)" fill="#383d42"/>
        <path id="Trazado_40" data-name="Trazado 40" d="M232.6,317.493h.871v.889H232.6v1.95c0,.371.164.527.535.527a2.13,2.13,0,0,0,.345-.035v.828a1.568,1.568,0,0,1-.613.1,1.159,1.159,0,0,1-1.26-1.251v-2.114h-.776v-.889h.216a.6.6,0,0,0,.647-.656v-.63h.906Z" transform="translate(-208.156 -315.361)" fill="#383d42"/>
        <path id="Trazado_41" data-name="Trazado 41" d="M247.174,322.027l1.079-.164c.241-.034.31-.155.31-.3,0-.354-.242-.638-.794-.638a.81.81,0,0,0-.863.759l-.915-.207a1.646,1.646,0,0,1,1.769-1.372c1.294,0,1.787.733,1.787,1.57v2.088a3.826,3.826,0,0,0,.052.673h-.932a2.341,2.341,0,0,1-.043-.535,1.467,1.467,0,0,1-1.294.665,1.318,1.318,0,0,1-1.424-1.269A1.293,1.293,0,0,1,247.174,322.027Zm1.389.665v-.19l-1.1.164c-.311.052-.561.224-.561.569a.556.556,0,0,0,.613.544A.956.956,0,0,0,248.564,322.692Z" transform="translate(-218.759 -318.101)" fill="#383d42"/>
        <path id="Trazado_42" data-name="Trazado 42" d="M265.845,319.9v-6.247h1V319.9Z" transform="translate(-232.78 -313.563)" fill="#383d42"/>
        <path id="Trazado_43" data-name="Trazado 43" d="M293.71,320.2v-2.615h-2.873V320.2H289.8v-6.118h1.036v2.528h2.873v-2.528h1.044V320.2Z" transform="translate(-249.625 -313.869)" fill="#383d42"/>
        <path id="Trazado_44" data-name="Trazado 44" d="M316.224,324.862a1.554,1.554,0,0,1-1.588-1.674v-2.649h1v2.468c0,.518.242.958.846.958a.842.842,0,0,0,.88-.941v-2.485h1v3.434a6.864,6.864,0,0,0,.043.768h-.958a3.142,3.142,0,0,1-.034-.466A1.345,1.345,0,0,1,316.224,324.862Z" transform="translate(-267.089 -318.408)" fill="#383d42"/>
        <path id="Trazado_45" data-name="Trazado 45" d="M335.069,324.455v-4.2h.958v.535a1.434,1.434,0,0,1,1.242-.656,1.318,1.318,0,0,1,1.26.742,1.475,1.475,0,0,1,1.363-.742,1.443,1.443,0,0,1,1.484,1.6v2.727h-.966v-2.563a.767.767,0,0,0-.811-.863.874.874,0,0,0-.871.932v2.494h-.984v-2.563a.767.767,0,0,0-.811-.863.859.859,0,0,0-.871.932v2.494Z" transform="translate(-281.457 -318.121)" fill="#383d42"/>
        <path id="Trazado_46" data-name="Trazado 46" d="M364.566,322.027l1.079-.164c.242-.034.311-.155.311-.3,0-.354-.242-.638-.794-.638a.81.81,0,0,0-.863.759l-.915-.207a1.646,1.646,0,0,1,1.769-1.372c1.294,0,1.786.733,1.786,1.57v2.088a3.809,3.809,0,0,0,.052.673h-.932a2.33,2.33,0,0,1-.043-.535,1.466,1.466,0,0,1-1.294.665A1.318,1.318,0,0,1,363.3,323.3,1.293,1.293,0,0,1,364.566,322.027Zm1.389.665v-.19l-1.1.164c-.311.052-.561.224-.561.569a.556.556,0,0,0,.613.544A.956.956,0,0,0,365.955,322.692Z" transform="translate(-301.307 -318.101)" fill="#383d42"/>
        <path id="Trazado_47" data-name="Trazado 47" d="M384.223,324.455h-1v-4.2h.975v.561a1.4,1.4,0,0,1,1.243-.682,1.485,1.485,0,0,1,1.519,1.665v2.658h-1V321.97c0-.518-.233-.932-.863-.932a.882.882,0,0,0-.872.992Z" transform="translate(-315.318 -318.121)" fill="#383d42"/>
        <path id="Trazado_48" data-name="Trazado 48" d="M406.943,322.329a2.179,2.179,0,1,1-2.183-2.226A2.14,2.14,0,0,1,406.943,322.329Zm-1.009,0a1.182,1.182,0,1,0-2.347,0,1.184,1.184,0,1,0,2.347,0Z" transform="translate(-328.934 -318.101)" fill="#383d42"/>
      </g>
    </g>
  </g>
</svg>
