<svg width="25" height="24" viewBox="0 0 25 24" fill="none" xmlns="http://www.w3.org/2000/svg">
<path d="M12.2598 16C12.7902 16 13.2989 16.2107 13.674 16.5858C14.0491 16.9609 14.2598 17.4696 14.2598 18C14.2598 18.5304 14.0491 19.0391 13.674 19.4142C13.2989 19.7893 12.7902 20 12.2598 20C11.7293 20 11.2206 19.7893 10.8456 19.4142C10.4705 19.0391 10.2598 18.5304 10.2598 18C10.2598 17.4696 10.4705 16.9609 10.8456 16.5858C11.2206 16.2107 11.7293 16 12.2598 16ZM12.2598 10C12.7902 10 13.2989 10.2107 13.674 10.5858C14.0491 10.9609 14.2598 11.4696 14.2598 12C14.2598 12.5304 14.0491 13.0391 13.674 13.4142C13.2989 13.7893 12.7902 14 12.2598 14C11.7293 14 11.2206 13.7893 10.8456 13.4142C10.4705 13.0391 10.2598 12.5304 10.2598 12C10.2598 11.4696 10.4705 10.9609 10.8456 10.5858C11.2206 10.2107 11.7293 10 12.2598 10ZM12.2598 4C12.7902 4 13.2989 4.21071 13.674 4.58579C14.0491 4.96086 14.2598 5.46957 14.2598 6C14.2598 6.53043 14.0491 7.03914 13.674 7.41421C13.2989 7.78929 12.7902 8 12.2598 8C11.7293 8 11.2206 7.78929 10.8456 7.41421C10.4705 7.03914 10.2598 6.53043 10.2598 6C10.2598 5.46957 10.4705 4.96086 10.8456 4.58579C11.2206 4.21071 11.7293 4 12.2598 4Z" fill="#174D9C"/>
</svg>
