<svg width="32" height="32" viewBox="0 0 32 32" fill="none" xmlns="http://www.w3.org/2000/svg">
<circle opacity="0.2" cx="16.001" cy="16" r="15.5" fill="#FFD058" stroke="#FFC93E"/>
<g clip-path="url(#clip0_551_5027)">
<path d="M24.001 21.7601C24.001 22.1166 23.8692 22.3886 23.6056 22.5761C23.3421 22.7635 23.0186 22.8572 22.6353 22.8572H9.36665C8.98331 22.8572 8.65986 22.7612 8.3963 22.5692C8.13275 22.3772 8.00098 22.1075 8.00098 21.7601C8.00098 21.4858 8.08723 21.2069 8.25974 20.9235L14.8869 9.89721C15.2031 9.39436 15.5769 9.14293 16.0082 9.14293C16.4394 9.14293 16.8036 9.39436 17.1007 9.89721L23.7422 20.9372C23.9147 21.2298 24.001 21.5041 24.001 21.7601ZM17.0001 14.7521V12.7498H15.0019V14.7521C15.0019 14.8801 15.0115 15.0012 15.0306 15.1155C15.0498 15.2298 15.0761 15.3578 15.1097 15.4995C15.1432 15.6412 15.1696 15.7624 15.1888 15.8629L15.5625 18.0846H16.4107L16.7988 15.8629C16.818 15.7715 16.8467 15.6526 16.8851 15.5064C16.9234 15.3601 16.9522 15.2298 16.9713 15.1155C16.9905 15.0012 17.0001 14.8801 17.0001 14.7521ZM17.0001 20.0595C17.0001 19.7944 16.9018 19.5704 16.7054 19.3875C16.5089 19.2046 16.2717 19.1132 15.9938 19.1132C15.7254 19.1132 15.493 19.2046 15.2966 19.3875C15.1001 19.5704 15.0019 19.7944 15.0019 20.0595C15.0019 20.3246 15.1001 20.5509 15.2966 20.7384C15.493 20.9258 15.7254 21.0195 15.9938 21.0195C16.2717 21.0195 16.5089 20.9258 16.7054 20.7384C16.9018 20.5509 17.0001 20.3246 17.0001 20.0595Z" fill="#FFD058"/>
</g>
<defs>
<clipPath id="clip0_551_5027">
<rect width="16" height="13.7143" fill="white" transform="translate(8.00098 9.14293)"/>
</clipPath>
</defs>
</svg>
