<svg width="32" height="32" viewBox="0 0 32 32" fill="none" xmlns="http://www.w3.org/2000/svg">
<circle opacity="0.2" cx="16" cy="16" r="15.5" fill="#FF001F" stroke="#FF001F"/>
<g clip-path="url(#clip0_81_3556)">
<path fill-rule="evenodd" clip-rule="evenodd" d="M20.8149 11.1973C18.1535 8.53592 13.8412 8.53163 11.1849 11.1879C8.52693 13.8468 8.5295 18.1573 11.1926 20.8188C13.8541 23.4802 18.1672 23.4836 20.8226 20.8273C23.4798 18.1711 23.4772 13.8588 20.8149 11.1973ZM17.3838 18.8722L15.9369 17.4253L14.4901 18.8722C13.8995 19.4628 13.4555 19.9771 12.7509 19.2733C12.0481 18.5696 12.5598 18.1256 13.1529 17.5342L14.5998 16.0882L13.1529 14.6413C12.5615 14.0508 12.0481 13.6068 12.7509 12.9022C13.4555 12.1993 13.8995 12.7128 14.4901 13.3042L15.9369 14.7493L17.3838 13.3042C17.9752 12.7136 18.4166 12.1985 19.1212 12.9022C19.8258 13.6068 19.3124 14.0508 18.7209 14.6413L17.2741 16.0873L18.7209 17.5333C19.3115 18.1256 19.8258 18.5696 19.1212 19.2733C18.4184 19.9771 17.9752 19.4628 17.3838 18.8722Z" fill="#FF001F"/>
</g>
<defs>
<clipPath id="clip0_81_3556">
<rect width="13.7143" height="13.7143" fill="white" transform="translate(9.14258 9.14282)"/>
</clipPath>
</defs>
</svg>
