<svg width="20" height="20" viewBox="0 0 20 20" fill="none" xmlns="http://www.w3.org/2000/svg">
<path d="M5.92497 0H18.2533C19.6296 0.72173 20.0241 1.86307 19.9989 3.39045C19.9233 7.88867 19.9737 12.3869 19.9737 16.8767C19.9737 18.7902 18.782 19.9735 16.8602 19.9735C12.471 19.9735 8.0734 19.9231 3.68423 19.9986C1.91345 20.0322 0.679777 19.4531 0 17.7915V4.99336H4.12902C4.19616 3.06316 3.66744 0.998673 5.93336 0H5.92497ZM5.70677 18.2782C5.88301 18.2782 6.05925 18.2782 6.23549 18.2782C9.74347 18.2782 13.2599 18.2782 16.7678 18.2782C17.8588 18.2782 18.2617 17.867 18.2617 16.7676C18.2617 12.1351 18.2617 7.51102 18.2617 2.87853C18.2617 1.87985 18.077 1.70362 17.0784 1.70362C13.7718 1.70362 10.4736 1.70362 7.16704 1.70362C5.97533 1.70362 5.84105 1.84629 5.84105 3.06316C5.84105 7.51103 5.84105 11.9589 5.84105 16.4068C5.84105 17.0026 5.76552 17.5901 5.71516 18.2866L5.70677 18.2782ZM1.69525 6.73055C1.69525 8.14883 1.69525 9.46641 1.69525 10.7924C1.69525 12.8485 1.69525 14.9046 1.69525 16.9523C1.69525 17.7411 2.14843 18.2279 2.82821 18.2698C3.56673 18.3118 4.04509 17.8418 4.11223 17.0194C4.12902 16.8683 4.12063 16.7089 4.12063 16.5494C4.12063 13.5366 4.12063 10.5154 4.12063 7.50263C4.12063 7.25087 4.12063 6.9991 4.12063 6.73055H1.67846H1.69525Z" fill="#969696"/>
<path d="M16.642 8.34375V9.93827H7.51953V8.34375H16.642Z" fill="#969696"/>
<path d="M7.51953 16.6347V15.0234H16.6084V16.6347H7.51953Z" fill="#969696"/>
<path d="M16.626 13.2937H7.53711V11.6992H16.626V13.2937Z" fill="#969696"/>
<path d="M10.8006 3.35547V6.63682H7.55273V3.35547H10.8006Z" fill="#969696"/>
<path d="M16.6345 5.03516V6.64646H12.5391V5.03516H16.6345Z" fill="#969696"/>
</svg>
