<svg width="48" height="48" viewBox="0 0 48 48" fill="none" xmlns="http://www.w3.org/2000/svg">
<circle cx="24" cy="24" r="24" fill="#C0D9FF"/>
<path d="M32.8659 21.9622H30.8067V20.9959C30.1799 20.9786 29.5734 20.9894 28.967 20.9872C28.3651 20.9872 27.7632 20.9872 27.1612 20.9872H23.4931C23.4886 20.8832 23.4818 20.7901 23.4818 20.6969C23.4818 18.5714 23.4818 16.4459 23.4818 14.3205C23.4818 14.2165 23.4818 14.1146 23.4818 13.9976C23.3664 13.9911 23.2849 13.9846 23.2012 13.9846C20.5582 13.9846 17.9129 13.9846 15.2698 13.9868C15.0956 13.9868 14.9101 14.0063 14.7471 14.0648C14.2923 14.2295 14.0886 14.574 14.0637 15.0268C14.0592 15.1005 14.0637 15.172 14.0637 15.2456C14.0637 21.3794 14.0637 27.511 14.0637 33.6447V33.9329C14.0909 33.9632 14.0954 33.9719 14.1022 33.9762C14.109 33.9806 14.1158 33.9849 14.1226 33.9871C14.1384 33.9914 14.1543 33.9957 14.1724 33.9979C14.1972 34.0001 14.2221 34.0001 14.2493 34.0001C18.155 34.0022 22.063 34.0044 25.9687 34.0066C25.9755 34.0066 25.9845 34.0109 26.014 34.0217C26.3738 34.7692 26.9033 35.4127 27.6025 35.937C27.4034 35.9977 12.8282 36.0259 12.0204 35.9695C12.0136 35.8829 12 35.7897 12 35.6965C12 34.5374 12 33.3761 12 32.2169C12 26.5555 12 20.8919 12 15.2305C12 14.7235 12.0475 14.223 12.2851 13.7615C12.8305 12.6977 13.722 12.1127 14.9598 12.013C15.0685 12.0043 15.1793 12.0043 15.2902 12.0043C18.4266 12.0043 21.5606 12.0043 24.697 12C24.8825 12 25.0092 12.0498 25.1405 12.1755C27.6523 14.5891 30.1686 16.9984 32.6894 19.4056C32.8184 19.5291 32.8795 19.6504 32.8772 19.8281C32.8659 20.4521 32.8727 21.0782 32.8727 21.7022V21.9622H32.8659ZM29.2566 18.9939C29.2634 18.9766 29.2702 18.9614 29.277 18.9441C28.1048 17.8218 26.9327 16.7016 25.7605 15.5815C25.7198 15.5425 25.6723 15.5078 25.627 15.471C25.6202 15.4666 25.6112 15.4645 25.6021 15.4666C25.5953 15.4666 25.5885 15.4731 25.5795 15.4775C25.532 15.7375 25.541 18.8011 25.5931 18.9939H29.2521H29.2566Z" fill="#969696"/>
<path d="M30.8016 24.9854V24.0234H32.8585V24.9898C33.9266 25.0483 34.7956 25.4361 35.4179 26.2594C35.7957 26.7599 35.9836 27.3211 35.9994 27.9342C35.8206 28.0014 34.4403 28.0231 33.9606 27.9689C33.9425 27.9147 33.9221 27.8541 33.9063 27.7934C33.7886 27.3254 33.4175 27.0026 32.9196 26.9917C32.2001 26.9744 31.4782 26.9744 30.7586 26.9917C30.1974 27.0047 29.7946 27.3991 29.7471 27.9321C29.7109 28.3286 29.9643 28.673 30.3762 28.751C30.9487 28.8572 31.5257 28.9439 32.1027 29.037C32.6277 29.1215 33.155 29.1995 33.68 29.2905C34.8997 29.5007 35.8387 30.4974 35.979 31.6782C36.1646 33.236 35.0264 34.6811 33.3903 34.9455C33.2251 34.9715 33.0577 34.9801 32.8676 34.9996V35.9725H30.8016V34.9975C29.6702 34.9476 28.7809 34.5013 28.1631 33.6043C27.8395 33.1342 27.6788 32.612 27.6834 32.027H29.7177C29.7313 32.0747 29.7471 32.1353 29.7607 32.1938C29.858 32.6402 30.2155 32.963 30.693 32.989C31.141 33.0128 31.5913 33.0042 32.0394 33.0042C32.3449 33.0042 32.6504 33.0128 32.9536 32.9912C33.5103 32.9522 33.9085 32.5492 33.9334 32.0205C33.9515 31.6652 33.6913 31.3293 33.2975 31.2448C32.9513 31.169 32.5983 31.1257 32.2476 31.0693C31.4895 30.9458 30.7247 30.8462 29.9711 30.6967C27.9594 30.2937 27.0814 28.2029 28.0794 26.5216C28.6202 25.6116 29.4665 25.1284 30.5482 25.0158C30.6228 25.0071 30.6952 24.9984 30.7971 24.9876L30.8016 24.9854Z" fill="#969696"/>
<path d="M18.2697 26.9794V30.0062C18.6793 30.0106 19.0821 30.0062 19.4849 30.0062C19.8832 30.0062 20.2814 30.0062 20.6797 30.0062H25.5019C25.563 30.1882 25.5811 31.5987 25.5313 31.9497C25.348 31.9952 16.516 32.0061 16.2196 31.9606C16.1675 31.7591 16.1653 25.2396 16.2196 25.0078H26.5971C26.1649 25.6123 25.8255 26.2406 25.6648 26.9751H18.2652L18.2697 26.9794Z" fill="#969696"/>
<path d="M16.1953 22.9669V21.0234H21.366C21.3977 21.6626 21.3728 22.3061 21.3795 22.9452C21.1917 22.9994 16.6117 23.0167 16.1976 22.9647L16.1953 22.9669Z" fill="#969696"/>
<path d="M16.1934 18.9774V17.0599C16.3744 17.0058 20.9522 16.9863 21.3595 17.0383V18.9774H16.1934Z" fill="#969696"/>
</svg>
