<svg width="30" height="31" viewBox="0 0 30 31" fill="none" xmlns="http://www.w3.org/2000/svg">
<path fill-rule="evenodd" clip-rule="evenodd" d="M8.10578 22.5865C8.33794 22.8188 8.61358 23.003 8.91696 23.1287C9.22034 23.2544 9.54552 23.3191 9.87391 23.3191C10.2023 23.3191 10.5275 23.2544 10.8308 23.1287C11.1342 23.003 11.4099 22.8188 11.642 22.5865L8.10578 19.049C7.87334 19.2812 7.68894 19.5569 7.56313 19.8604C7.43732 20.1639 7.37257 20.4892 7.37257 20.8178C7.37257 21.1463 7.43732 21.4716 7.56313 21.7751C7.68894 22.0786 7.87334 22.3543 8.10578 22.5865ZM14.227 7.34778L13.3208 8.25403C12.3433 9.23153 10.5583 10.5203 9.31328 11.1428L5.54203 13.029C4.92328 13.339 4.81203 13.9965 5.30828 14.4928L16.0033 25.1878C16.5008 25.6828 17.1558 25.579 17.467 24.9528L19.3545 21.1828C19.972 19.9478 21.262 18.1578 22.2433 17.1753L23.1495 16.2678C24.1786 15.2388 24.8203 13.8858 24.9661 12.4379C25.1119 10.99 24.7528 9.53623 23.9495 8.32278C24.084 8.21507 24.1949 8.08099 24.2756 7.9288C24.3563 7.7766 24.4049 7.60951 24.4186 7.43781C24.4323 7.2661 24.4107 7.09341 24.3551 6.93036C24.2996 6.76731 24.2112 6.61736 24.0956 6.48973C23.9799 6.36209 23.8393 6.25948 23.6825 6.1882C23.5257 6.11693 23.356 6.07849 23.1837 6.07526C23.0115 6.07204 22.8405 6.10409 22.6811 6.16944C22.5217 6.23479 22.3774 6.33207 22.257 6.45528C22.2283 6.48653 22.1995 6.51653 22.1745 6.54903C21.1414 5.86398 19.9292 5.49875 18.6895 5.49903C17.8607 5.49804 17.0398 5.66073 16.274 5.97777C15.5083 6.29482 14.8126 6.75997 14.227 7.34653V7.34778Z" fill="#969696"/>
</svg>