<svg width="20" height="20" viewBox="0 0 20 20" fill="none" xmlns="http://www.w3.org/2000/svg">
<path d="M17.3883 8.30184H15.6723V7.49657C15.1499 7.48213 14.6445 7.49116 14.1392 7.48935C13.6376 7.48935 13.136 7.48935 12.6344 7.48935H9.5776C9.57383 7.40268 9.56817 7.32505 9.56817 7.24741C9.56817 5.47618 9.56817 3.70495 9.56817 1.93373C9.56817 1.84706 9.56817 1.7622 9.56817 1.6647C9.472 1.65928 9.40411 1.65387 9.33434 1.65387C7.13181 1.65387 4.9274 1.65387 2.72487 1.65567C2.57967 1.65567 2.42504 1.67192 2.28927 1.72067C1.91024 1.85789 1.74052 2.14497 1.71978 2.52233C1.71601 2.58372 1.71978 2.6433 1.71978 2.70469C1.71978 7.81615 1.71978 12.9258 1.71978 18.0373V18.2774C1.74241 18.3027 1.74618 18.3099 1.75184 18.3135C1.7575 18.3171 1.76315 18.3207 1.76881 18.3225C1.78201 18.3262 1.79521 18.3298 1.8103 18.3316C1.83104 18.3334 1.85178 18.3334 1.87441 18.3334C5.12917 18.3352 8.38582 18.337 11.6406 18.3388C11.6462 18.3388 11.6538 18.3424 11.6783 18.3514C11.9781 18.9743 12.4194 19.5106 13.0021 19.9475C12.8361 19.9981 0.690175 20.0216 0.0169716 19.9746C0.0113144 19.9024 0 19.8248 0 19.7471C0 18.7812 0 17.8134 0 16.8474C0 12.1296 0 7.40991 0 2.69205C0 2.26956 0.0396006 1.85248 0.237602 1.4679C0.692062 0.581383 1.43504 0.0938873 2.46653 0.0108328C2.55704 0.00361063 2.64944 0.00361184 2.74184 0.00361184C5.35546 0.00361184 7.96719 0.00361107 10.5808 0C10.7354 0 10.841 0.0415268 10.9504 0.146248C13.0436 2.15761 15.1405 4.16537 17.2412 6.17131C17.3487 6.27423 17.3996 6.37534 17.3977 6.52339C17.3883 7.04338 17.3939 7.56518 17.3939 8.08518V8.30184H17.3883ZM14.3805 5.82826C14.3862 5.81382 14.3919 5.80118 14.3975 5.78673C13.4207 4.85147 12.4439 3.91801 11.4671 2.98455C11.4332 2.95205 11.3936 2.92316 11.3558 2.89246C11.3502 2.88885 11.3426 2.88705 11.3351 2.88885C11.3294 2.88885 11.3238 2.89427 11.3162 2.89788C11.2766 3.11454 11.2842 5.66757 11.3276 5.82826H14.3768H14.3805Z" fill="#EFF6FF"/>
<path d="M15.6677 10.8212V10.0195H17.3818V10.8248C18.2719 10.8735 18.996 11.1967 19.5145 11.8828C19.8295 12.2999 19.986 12.7675 19.9992 13.2785C19.8502 13.3345 18.6999 13.3525 18.3001 13.3074C18.2851 13.2623 18.2681 13.2117 18.2549 13.1612C18.1568 12.7712 17.8476 12.5021 17.4327 12.4931C16.8331 12.4787 16.2315 12.4787 15.6318 12.4931C15.1642 12.5039 14.8285 12.8326 14.7889 13.2767C14.7588 13.6071 14.97 13.8942 15.3132 13.9592C15.7902 14.0477 16.2711 14.1199 16.752 14.1975C17.1895 14.2679 17.6288 14.3329 18.0663 14.4088C19.0827 14.5839 19.8653 15.4145 19.9822 16.3985C20.1368 17.6967 19.1883 18.9009 17.8249 19.1212C17.6873 19.1429 17.5477 19.1501 17.3893 19.1664V19.977H15.6677V19.1646C14.7248 19.123 13.9837 18.7511 13.4689 18.0036C13.1993 17.6118 13.0654 17.1767 13.0691 16.6892H14.7644C14.7757 16.7289 14.7889 16.7794 14.8002 16.8282C14.8813 17.2001 15.1793 17.4692 15.5772 17.4908C15.9505 17.5107 16.3258 17.5035 16.6992 17.5035C16.9537 17.5035 17.2083 17.5107 17.461 17.4926C17.9249 17.4601 18.2568 17.1243 18.2775 16.6838C18.2926 16.3876 18.0757 16.1078 17.7476 16.0374C17.4591 15.9742 17.1649 15.9381 16.8726 15.8911C16.2409 15.7882 15.6036 15.7052 14.9756 15.5806C13.2992 15.2447 12.5675 13.5024 13.3991 12.1013C13.8498 11.343 14.5551 10.9404 15.4565 10.8465C15.5187 10.8392 15.579 10.832 15.6639 10.823L15.6677 10.8212Z" fill="#EFF6FF"/>
<path d="M5.22608 12.4829V15.0052C5.5674 15.0088 5.90306 15.0052 6.23872 15.0052C6.5706 15.0052 6.90249 15.0052 7.23438 15.0052H11.2529C11.3038 15.1569 11.3189 16.3323 11.2774 16.6248C11.1246 16.6627 3.76464 16.6717 3.51761 16.6338C3.47424 16.4659 3.47236 11.033 3.51761 10.8398H12.1655C11.8054 11.3436 11.5225 11.8672 11.3886 12.4793H5.22231L5.22608 12.4829Z" fill="#EFF6FF"/>
<path d="M3.49609 9.13909V7.51953H7.80498C7.83138 8.05216 7.81063 8.58841 7.81629 9.12104C7.65977 9.16618 3.84307 9.18062 3.49798 9.13729L3.49609 9.13909Z" fill="#EFF6FF"/>
<path d="M3.49414 5.8132V4.2153C3.645 4.17016 7.45982 4.15391 7.79925 4.19725V5.8132H3.49414Z" fill="#EFF6FF"/>
</svg>
