<svg width="16" height="16" viewBox="0 0 16 16" fill="none" xmlns="http://www.w3.org/2000/svg">
<g clip-path="url(#clip0_3266_14146)">
<path d="M4.3096 8.95599L9.9252 3.20421C9.98536 3.14258 10.4667 2.64957 11.2288 2.38252C12.2918 2.03331 13.3748 2.3209 14.2372 3.20421C15.1196 4.08751 15.3804 5.17625 15.0394 6.26498C14.7987 7.04557 14.2973 7.57967 14.2372 7.64129L8.20041 13.8245C7.15751 14.8927 4.55027 16.269 2.14358 13.8245C-0.243047 11.38 1.12074 8.68894 2.14358 7.64129L8.62158 0.98566C8.86225 0.739155 9.2433 0.739155 9.48397 0.98566C9.72464 1.23217 9.72464 1.62246 9.48397 1.86897L3.02603 8.5246C2.92576 8.60677 0.900129 10.7637 3.02603 12.9412C5.09177 15.057 7.1174 13.1671 7.33801 12.9412L13.3748 6.73744C13.3748 6.73744 13.7157 6.38823 13.8762 5.89522C14.0767 5.23787 13.9363 4.66269 13.3748 4.08751C12.1714 2.85499 11.0082 3.88209 10.7876 4.08751L5.17199 9.81876C4.97144 10.0242 4.83105 10.3734 5.17199 10.7226C5.51294 11.0718 5.83383 10.9075 6.03439 10.7226L9.9252 6.73744C10.1659 6.51148 10.567 6.51148 10.7876 6.73744C11.0283 6.98395 11.0283 7.39479 10.7876 7.64129L6.89679 11.6059C6.35528 12.14 5.25222 12.5714 4.3096 11.6059C3.34693 10.6404 3.7681 9.49008 4.3096 8.95599Z" fill="#474756"/>
</g>
<defs>
<clipPath id="clip0_3266_14146">
<rect width="16" height="16" fill="white"/>
</clipPath>
</defs>
</svg>
