<svg width="20" height="20" viewBox="0 0 20 20" fill="none" xmlns="http://www.w3.org/2000/svg">
<path d="M5 7.5C2.15 7.5 0 8.75833 0 10.4167V17.0833C0 18.75 2.15 20 5 20C7.85 20 10 18.75 10 17.0833V10.4167C10 8.75833 7.85 7.5 5 7.5ZM8.33333 13.75C8.33333 14.1917 7.06667 15 5 15C2.93333 15 1.66667 14.1917 1.66667 13.75V12.625C2.54167 13.0667 3.69167 13.3333 5 13.3333C6.30833 13.3333 7.45833 13.075 8.33333 12.625V13.75ZM5 9.16667C7.06667 9.16667 8.33333 9.975 8.33333 10.4167C8.33333 10.8583 7.06667 11.6667 5 11.6667C2.93333 11.6667 1.66667 10.8583 1.66667 10.4167C1.66667 9.975 2.93333 9.16667 5 9.16667ZM5 18.3333C2.93333 18.3333 1.66667 17.525 1.66667 17.0833V15.9583C2.54167 16.4 3.69167 16.6667 5 16.6667C6.30833 16.6667 7.45833 16.4 8.33333 15.9583V17.0833C8.33333 17.525 7.06667 18.3333 5 18.3333ZM20 4.16667V15.8333C20 18.1333 18.1333 20 15.8333 20H11.6667C11.2083 20 10.8333 19.625 10.8333 19.1667C10.8333 18.7083 11.2083 18.3333 11.6667 18.3333H15.8333C17.2083 18.3333 18.3333 17.2083 18.3333 15.8333V4.16667C18.3333 2.79167 17.2083 1.66667 15.8333 1.66667H7.5C6.125 1.66667 5 2.79167 5 4.16667V5C5 5.45833 4.625 5.83333 4.16667 5.83333C3.70833 5.83333 3.33333 5.45833 3.33333 5V4.16667C3.33333 1.86667 5.2 0 7.5 0H15.8333C18.1333 0 20 1.86667 20 4.16667ZM10.8333 8.33333C10.375 8.33333 10 7.95833 10 7.5C10 7.04167 10.375 6.66667 10.8333 6.66667H15V5H8.33333V5.41667C8.33333 5.875 7.95833 6.25 7.5 6.25C7.04167 6.25 6.66667 5.875 6.66667 5.41667V5C6.66667 4.08333 7.41667 3.33333 8.33333 3.33333H15C15.9167 3.33333 16.6667 4.08333 16.6667 5V6.66667C16.6667 7.58333 15.9167 8.33333 15 8.33333H10.8333ZM11.6667 15C11.6667 14.5417 12.0417 14.1667 12.5 14.1667H15.8333C16.2917 14.1667 16.6667 14.5417 16.6667 15C16.6667 15.4583 16.2917 15.8333 15.8333 15.8333H12.5C12.0417 15.8333 11.6667 15.4583 11.6667 15ZM11.6667 11.6667V10.8333C11.6667 10.375 12.0417 10 12.5 10C12.9583 10 13.3333 10.375 13.3333 10.8333V11.6667C13.3333 12.125 12.9583 12.5 12.5 12.5C12.0417 12.5 11.6667 12.125 11.6667 11.6667ZM16.6667 11.6667C16.6667 12.125 16.2917 12.5 15.8333 12.5C15.375 12.5 15 12.125 15 11.6667V10.8333C15 10.375 15.375 10 15.8333 10C16.2917 10 16.6667 10.375 16.6667 10.8333V11.6667Z" fill="#969696"/>
</svg>
