<svg width="21" height="21" viewBox="0 0 21 21" fill="none" xmlns="http://www.w3.org/2000/svg">
<path d="M2.61314 18.3749C2.68106 18.4563 2.71424 18.4999 2.75168 18.54C3.04573 18.8542 3.34056 19.1679 3.63577 19.4813C3.80364 19.6595 3.91787 19.861 3.9198 20.1145C3.9225 20.4672 3.72067 20.7999 3.4023 20.9245C3.05692 21.06 2.72775 21.0198 2.4553 20.7555C2.22029 20.5278 2.00226 20.2824 1.77728 20.0443C1.34468 19.587 0.912471 19.1289 0.479876 18.6716C0.166139 18.3401 -0.0067447 17.9523 0.000201513 17.49C0.00676183 17.059 0.161894 16.6881 0.454407 16.3755C1.0294 15.7612 1.60709 15.1491 2.18479 14.5371C2.28589 14.4298 2.38545 14.3194 2.49737 14.2237C2.83773 13.9335 3.31934 13.9443 3.63963 14.2423C3.96803 14.5475 4.01666 15.0341 3.74576 15.3946C3.64967 15.5223 3.53505 15.6365 3.42546 15.7538C3.19315 16.0027 2.95813 16.2489 2.72466 16.4971C2.69495 16.5287 2.66909 16.5635 2.62394 16.6179C2.68723 16.626 2.72813 16.6356 2.76865 16.6356C5.4032 16.6348 8.03813 16.6472 10.6727 16.6267C12.0843 16.6159 13.3354 16.1181 14.4205 15.2186C15.5235 14.3044 16.2188 13.139 16.5144 11.7385C16.6989 10.8652 16.6827 9.99156 16.4843 9.12136C16.4415 8.93381 16.3983 8.7478 16.4492 8.55177C16.5476 8.17242 16.861 7.90654 17.2492 7.88416C17.6162 7.86293 17.9797 8.09486 18.0997 8.45529C18.1723 8.67332 18.217 8.90216 18.2564 9.12907C18.3479 9.65506 18.3938 10.1857 18.3753 10.7205C18.3413 11.7185 18.1453 12.6817 17.7393 13.597C16.8293 15.6485 15.3239 17.079 13.2304 17.8848C12.3027 18.2417 11.3337 18.3776 10.3416 18.376C7.861 18.3722 5.38082 18.3749 2.90025 18.3749C2.81921 18.3749 2.73778 18.3749 2.61198 18.3749H2.61314Z" fill="#EFF6FF"/>
<path d="M18.394 4.36413C18.2898 4.36413 18.2323 4.36413 18.1752 4.36413C15.6113 4.36413 13.0473 4.35834 10.4834 4.36644C8.98767 4.37107 7.65669 4.86039 6.52292 5.83402C5.33627 6.8528 4.62544 8.14518 4.41744 9.70229C4.31788 10.4479 4.35222 11.1876 4.52897 11.9201C4.57257 12.1014 4.60383 12.2832 4.5498 12.4707C4.43944 12.8543 4.12068 13.1106 3.73555 13.1156C3.32766 13.121 2.98575 12.8898 2.88812 12.4951C2.7928 12.1099 2.72025 11.7167 2.67047 11.3231C2.58788 10.6701 2.60872 10.0141 2.70597 9.36424C2.84875 8.40991 3.14783 7.50536 3.62712 6.66448C4.50504 5.12435 5.7542 3.99057 7.37807 3.27781C8.12286 2.95057 8.902 2.73717 9.71586 2.67388C10.0419 2.64841 10.37 2.63336 10.6972 2.63297C13.1712 2.6295 15.6452 2.63104 18.1189 2.63104H18.3774C18.3407 2.57277 18.3238 2.53457 18.2968 2.50563C17.99 2.17684 17.682 1.84921 17.3729 1.52235C17.1993 1.33905 17.08 1.13143 17.085 0.871336C17.0924 0.519394 17.2513 0.252351 17.567 0.0968326C17.8811 -0.0575278 18.1899 -0.0258839 18.4747 0.181345C18.5314 0.222636 18.5831 0.272418 18.6313 0.323742C19.2785 1.01142 19.9202 1.7045 20.5724 2.38715C21.105 2.9444 21.1844 3.92072 20.6041 4.56479C20.1911 5.02286 19.762 5.46587 19.3395 5.91506C19.0797 6.19098 18.8239 6.47114 18.5553 6.73857C18.2427 7.04961 17.7812 7.07392 17.43 6.81305C17.0545 6.53366 16.9689 6.01115 17.2398 5.62988C17.3027 5.54151 17.3787 5.46124 17.4532 5.38213C17.726 5.09193 18.0012 4.80367 18.2744 4.51424C18.3079 4.47874 18.3357 4.43783 18.3936 4.36451L18.394 4.36413Z" fill="#EFF6FF"/>
<path d="M9.80566 7.18553C9.80566 7.0686 9.80334 6.98023 9.80604 6.89186C9.81029 6.74445 9.80566 6.5951 9.82649 6.45C9.87473 6.11427 10.1584 5.87733 10.496 5.87501C10.8337 5.87308 11.1185 6.10462 11.1771 6.43766C11.1961 6.54416 11.1976 6.65453 11.2007 6.76336C11.2045 6.89649 11.2015 7.03001 11.2015 7.18746C11.3033 7.18746 11.3851 7.18592 11.4666 7.18746C12.0485 7.20097 12.5398 7.41746 12.9334 7.84812C13.1715 8.10899 13.1869 8.45052 12.977 8.72875C12.7833 8.98499 12.3943 9.08494 12.1095 8.94254C12.0369 8.90626 11.9721 8.84722 11.9169 8.78625C11.7826 8.63768 11.6136 8.56899 11.4203 8.56783C10.7905 8.56358 10.1607 8.56243 9.53051 8.56783C9.24417 8.57053 9.03347 8.77043 9.0107 9.03708C8.9887 9.29217 9.15387 9.51637 9.43133 9.57773C9.8701 9.67459 10.3116 9.75756 10.7519 9.84709C11.1293 9.92388 11.509 9.98987 11.8833 10.0806C12.39 10.2037 12.7968 10.4842 13.0874 10.9199C13.7469 11.9082 13.283 13.436 11.9208 13.7663C11.7541 13.8068 11.5773 13.8076 11.4052 13.825C11.3485 13.8307 11.291 13.8319 11.213 13.8365C11.2088 13.9087 11.2042 13.9762 11.2015 14.0438C11.1937 14.2166 11.2026 14.3918 11.1764 14.562C11.1231 14.9093 10.8322 15.1378 10.4821 15.1281C10.1395 15.1185 9.86972 14.8843 9.82456 14.5408C9.8045 14.3888 9.8099 14.2332 9.80566 14.0797C9.80334 14.004 9.80566 13.9284 9.80566 13.8404C9.65091 13.8288 9.51777 13.8207 9.38464 13.8087C8.84013 13.7597 8.38786 13.5255 8.0336 13.1122C7.85879 12.9081 7.84258 12.6669 7.946 12.4241C8.04942 12.1814 8.23697 12.034 8.50285 12.0066C8.72938 11.9834 8.93699 12.0259 9.09174 12.2181C9.21754 12.374 9.39158 12.4326 9.58685 12.433C10.2105 12.4342 10.8337 12.428 11.4573 12.4361C11.7255 12.4396 11.9652 12.2459 11.9918 11.9838C12.02 11.7056 11.8505 11.4787 11.5553 11.4185C10.782 11.261 10.0071 11.1082 9.23336 10.9515C8.74366 10.8524 8.32843 10.6197 8.01932 10.2249C7.20931 9.1899 7.69169 7.66559 8.95359 7.27275C9.123 7.21988 9.30553 7.20753 9.48343 7.18592C9.57759 7.17473 9.67406 7.18399 9.80604 7.18399L9.80566 7.18553Z" fill="#EFF6FF"/>
</svg>
