<svg width="26" height="24" viewBox="0 0 26 24" fill="none" xmlns="http://www.w3.org/2000/svg">
<path d="M14.1022 12.4798L20.3197 6.99047C20.4425 6.8638 20.5067 6.70086 20.4994 6.53421C20.4921 6.36756 20.4139 6.20947 20.2803 6.09155C20.1468 5.97362 19.9677 5.90454 19.7789 5.8981C19.5902 5.89166 19.4056 5.94835 19.2622 6.05683L13.0447 11.5461L6.82716 6.0502C6.68593 5.92552 6.49438 5.85547 6.29466 5.85547C6.09493 5.85547 5.90339 5.92552 5.76216 6.0502C5.62093 6.17489 5.54159 6.344 5.54159 6.52034C5.54159 6.69667 5.62093 6.86578 5.76216 6.99047L11.9872 12.4798L5.76216 17.9691C5.68365 18.0284 5.61988 18.1015 5.57486 18.1836C5.52985 18.2658 5.50455 18.3553 5.50056 18.4464C5.49657 18.5376 5.51397 18.6286 5.55168 18.7135C5.58939 18.7985 5.64658 18.8757 5.71967 18.9402C5.79276 19.0047 5.88017 19.0552 5.97642 19.0885C6.07266 19.1218 6.17566 19.1372 6.27895 19.1337C6.38224 19.1301 6.48359 19.1078 6.57664 19.0681C6.66968 19.0283 6.75242 18.972 6.81966 18.9027L13.0447 13.4134L19.2622 18.9027C19.4056 19.0112 19.5902 19.0679 19.7789 19.0614C19.9677 19.055 20.1468 18.9859 20.2803 18.868C20.4139 18.7501 20.4921 18.592 20.4994 18.4253C20.5067 18.2587 20.4425 18.0957 20.3197 17.9691L14.1022 12.4798Z" fill="#FF001F"/>
</svg>
