<svg width="24" height="24" viewBox="0 0 24 24" fill="none" xmlns="http://www.w3.org/2000/svg">
<path d="M0 4.98074V3.01304C0.0872127 3.00881 0.168498 3.00162 0.250207 3.00162C1.13165 3.00077 2.01309 2.99654 2.89453 3.00542C3.05879 3.00712 3.11637 2.95087 3.16845 2.7999C3.72813 1.18488 4.86063 0.215621 6.55789 0.0265898C8.51805 -0.191621 10.1738 0.952295 10.7818 2.75719C10.8478 2.95383 10.9367 3.00627 11.1353 3.00627C15.324 3.00035 19.5128 3.00204 23.7011 3.00204H24V4.98159H23.7375C19.5276 4.98159 15.3181 4.98286 11.1082 4.97736C10.9253 4.97736 10.8457 5.02134 10.7864 5.2053C10.2327 6.92561 8.60442 8.05177 6.80217 7.97607C5.13793 7.90629 3.65785 6.77252 3.17183 5.1833C3.12399 5.02641 3.05964 4.97651 2.89749 4.97778C2.01605 4.98582 1.13461 4.98159 0.253171 4.98159C0.176542 4.98159 0.0999136 4.98159 0 4.98159L0 4.98074Z" fill="#174D9C"/>
<path d="M0.00195312 12.9775V10.9979H0.265285C4.46123 10.9979 8.6576 10.9962 12.8535 11.0026C13.0606 11.0026 13.1461 10.9514 13.2202 10.7455C13.7849 9.18247 14.892 8.24112 16.5491 8.04194C18.4961 7.80766 20.2268 8.95496 20.8187 10.8136C20.8678 10.9683 20.9406 11.0013 21.0871 11.0005C21.9757 10.995 22.8644 10.9975 23.753 10.9975C23.8292 10.9975 23.9058 10.9975 23.9965 10.9975V12.9661C23.9126 12.9699 23.8309 12.9766 23.7488 12.9766C22.8673 12.9775 21.9855 12.9821 21.1045 12.9728C20.93 12.9711 20.8631 13.0308 20.8119 13.1919C20.2344 15.0082 18.5148 16.1407 16.6126 15.9673C15.0474 15.8248 13.6622 14.7096 13.2054 13.2067C13.1495 13.0232 13.0758 12.9728 12.8895 12.9728C8.70036 12.9783 4.51161 12.9771 0.322439 12.9771H0.00195312V12.9775Z" fill="#174D9C"/>
<path d="M10.8737 19.0267H23.9971V20.9948C23.9023 20.9948 23.813 20.9948 23.7236 20.9948C19.5141 20.9948 15.3047 20.9961 11.0952 20.991C10.9195 20.991 10.8496 21.0409 10.7899 21.2118C10.2654 22.7135 9.21331 23.6557 7.6528 23.9356C5.74259 24.2786 3.82983 23.1888 3.18209 21.2266C3.12367 21.049 3.05508 20.9876 2.86626 20.9902C1.99202 21.0012 1.11777 20.9948 0.243106 20.9948H0.00390625V19.0225C0.081805 19.0225 0.162667 19.0225 0.243106 19.0225C1.12455 19.0225 2.00599 19.0161 2.88743 19.0276C3.06609 19.0297 3.12409 18.9658 3.17193 18.8081C3.87386 16.4983 6.56222 15.3488 8.72729 16.4187C9.76538 16.9317 10.4339 17.75 10.8056 18.8301C10.8259 18.8893 10.8466 18.9489 10.8737 19.0267Z" fill="#174D9C"/>
</svg>
