<svg width="28" height="28" viewBox="0 0 28 28" fill="none" xmlns="http://www.w3.org/2000/svg">
<rect x="0.5" y="0.5" width="27" height="27" rx="13.5" fill="#EFF6FF" stroke="#C0D9FF"/>
<g clip-path="url(#clip0_2981_38607)">
<path d="M13.562 9.45999C13.4941 9.45999 13.4262 9.45999 13.3579 9.45999C12.6087 9.45999 11.8598 9.4579 11.1106 9.46124C10.8191 9.46249 10.5296 9.4867 10.2514 9.58896C9.43887 9.88739 8.74336 10.6228 8.7342 11.7443C8.72212 13.2244 8.73253 14.7044 8.72795 16.184C8.72753 16.3184 8.78959 16.3568 8.90162 16.3952C9.97862 16.765 10.6637 17.5092 10.9132 18.6173C11.1947 19.8682 10.6379 21.1066 9.6142 21.7636C7.80421 22.9251 5.40532 21.8796 5.04715 19.7564C4.76228 18.0693 5.8422 16.808 7.00166 16.4207C7.0733 16.3969 7.14451 16.371 7.24364 16.3359V16.0947C7.24364 14.7052 7.24197 13.3153 7.24447 11.9259C7.2453 11.5085 7.27029 11.0915 7.39773 10.6904C7.81046 9.39279 8.65715 8.52797 9.96321 8.12603C10.3447 8.00875 10.7379 7.97411 11.1339 7.97202C11.869 7.96868 12.6045 7.97119 13.3396 7.97119C13.4141 7.97119 13.4891 7.97119 13.6207 7.97119C13.5378 7.8802 13.492 7.8251 13.442 7.77502C12.9806 7.31339 12.5183 6.85302 12.0568 6.39181C12.0077 6.34298 11.9573 6.29456 11.9131 6.24156C11.6466 5.92143 11.6653 5.48401 11.956 5.20603C12.2467 4.92806 12.6865 4.92889 12.9872 5.22356C13.5424 5.76783 14.0896 6.32002 14.6394 6.87013C14.7522 6.98283 14.8655 7.09594 14.9717 7.21489C15.7389 8.07219 15.748 9.33477 14.9942 10.2029C14.9488 10.2555 14.9018 10.3064 14.8526 10.3557C14.2541 10.955 13.6532 11.5519 13.0568 12.1534C12.8656 12.3462 12.6507 12.4647 12.3713 12.4276C11.834 12.3562 11.5529 11.7702 11.8382 11.3082C11.8956 11.2151 11.9731 11.1316 12.051 11.0536C12.5116 10.5911 12.9747 10.1316 13.437 9.67076C13.4891 9.61901 13.5386 9.56433 13.5894 9.51132C13.5803 9.49463 13.5711 9.47793 13.562 9.46124V9.45999ZM7.98204 20.7585C8.81499 20.7614 9.49384 20.0903 9.50051 19.2572C9.50759 18.4253 8.83415 17.7484 8.00037 17.7392C7.2503 17.7308 6.49023 18.3051 6.4844 19.2388C6.47857 20.1495 7.20032 20.7497 7.98163 20.7585H7.98204Z" fill="#174D9C"/>
<path d="M14.4685 18.4929C14.5509 18.5004 14.5901 18.5067 14.6292 18.5067C15.4197 18.5071 16.2106 18.5163 17.0011 18.5042C17.8511 18.4912 18.5004 18.1039 18.9468 17.3835C19.1638 17.0337 19.2596 16.6456 19.2588 16.2328C19.2571 15.5032 19.2588 14.774 19.2588 14.0444C19.2588 13.322 19.2588 12.5995 19.2588 11.877C19.2588 11.801 19.2588 11.7255 19.2588 11.6341C18.3321 11.3586 17.6508 10.7976 17.2601 9.91237C16.9819 9.28171 16.934 8.62558 17.1081 7.95777C17.4513 6.64344 18.6782 5.70349 20.0238 5.71894C21.4236 5.73522 22.6105 6.69269 22.9237 8.07923C23.1016 8.866 22.97 9.61227 22.546 10.2997C22.1266 10.9796 21.5152 11.4099 20.7447 11.6332C20.7447 11.7292 20.7447 11.8119 20.7447 11.8945C20.7447 13.3115 20.7418 14.729 20.7456 16.146C20.7477 16.8935 20.5786 17.5939 20.1742 18.2245C19.5378 19.2162 18.6349 19.8018 17.4646 19.9571C17.2455 19.9863 17.0223 19.993 16.8007 19.9942C16.0936 19.9988 15.386 19.9959 14.6788 19.9959C14.6047 19.9959 14.5305 19.9959 14.4048 19.9959C14.4864 20.0856 14.5326 20.1411 14.5834 20.1921C15.0582 20.6691 15.5342 21.1454 16.009 21.6228C16.0677 21.6817 16.1265 21.7414 16.1773 21.8069C16.4072 22.1028 16.383 22.5085 16.1231 22.7765C15.8645 23.0432 15.4568 23.0766 15.1569 22.8537C15.1015 22.8124 15.0503 22.7648 15.0012 22.716C14.3877 22.1024 13.778 21.4851 13.1612 20.8749C12.5048 20.2255 12.3999 19.4424 12.5944 18.5851C12.6506 18.3364 12.7893 18.1269 12.9475 17.9311C13.0129 17.8501 13.0825 17.7721 13.1558 17.6982C13.7726 17.078 14.3902 16.459 15.0082 15.84C15.2106 15.6372 15.4468 15.5245 15.74 15.5863C16.0211 15.6455 16.211 15.8129 16.2985 16.0879C16.383 16.3547 16.326 16.5951 16.1431 16.805C16.0977 16.8572 16.0469 16.9048 15.9978 16.954C15.5463 17.4056 15.0949 17.8572 14.6434 18.3088C14.5951 18.3573 14.5489 18.4086 14.4697 18.4925L14.4685 18.4929ZM20.013 10.2287C20.8605 10.2217 21.5156 9.54716 21.5077 8.69028C21.5002 7.87513 20.8118 7.20106 19.993 7.2069C19.1651 7.21316 18.49 7.90017 18.495 8.73118C18.5004 9.5672 19.178 10.2358 20.013 10.2287Z" fill="#174D9C"/>
</g>
<defs>
<clipPath id="clip0_2981_38607">
<rect width="18" height="18" fill="white" transform="translate(5 5)"/>
</clipPath>
</defs>
</svg>
