<svg width="46" height="54" viewBox="0 0 46 54" fill="none" xmlns="http://www.w3.org/2000/svg">
<path d="M22.4834 0.0402955V0.702467C22.4834 5.64222 22.4863 10.581 22.4814 15.5208C22.4794 17.0553 22.8675 18.4701 23.7861 19.706C25.2274 21.6454 27.1883 22.5335 29.5924 22.5227C32.75 22.5089 35.9085 22.5197 39.0661 22.5197C40.8169 22.5197 42.5676 22.5197 44.3183 22.5197H44.9589C44.9874 22.955 45.0335 23.3401 45.0345 23.7252C45.0414 26.3916 45.0385 29.057 45.0385 31.7233C45.0385 35.3545 45.0424 38.9856 45.0365 42.6157C45.0335 44.2368 44.7585 45.8117 44.0698 47.2853C42.3023 51.0707 39.3314 53.2743 35.2081 53.9218C34.7905 53.9876 34.3602 53.9955 33.9358 53.9955C26.3277 53.9994 18.7186 54.0023 11.1105 53.9974C6.36922 53.9945 2.0435 50.8251 0.574734 46.3029C0.202386 45.1583 0.000983275 43.9902 0.000983275 42.7867C0.000983275 32.2696 0.00393062 21.7534 8.2493e-07 11.2363C-0.00196408 6.11478 3.50636 1.41081 8.95012 0.229908C9.61622 0.0854882 10.3108 0.0167167 10.9936 0.0127869C14.5442 -0.00784457 18.0948 0.00197993 21.6453 0.00492728C21.9037 0.00492728 22.1621 0.0265412 22.4834 0.0412779V0.0402955Z" fill="#E5E0EB"/>
<path d="M27.0275 1.04493C28.1829 1.47721 29.1751 1.99889 30.1163 2.62078C30.9504 3.17194 31.7334 3.78597 32.4418 4.49431C35.226 7.28153 38.025 10.054 40.7877 12.8618C42.1189 14.2157 43.0886 15.8249 43.8107 17.5805C43.8529 17.6827 43.8765 17.7928 43.9227 17.945C43.7488 17.9588 43.6083 17.9794 43.4688 17.9794C38.8415 17.9814 34.2141 17.9834 29.5878 17.9745C29.2498 17.9745 28.8951 17.9421 28.5758 17.837C27.728 17.5589 27.2171 16.9596 27.0796 16.0695C27.0403 15.8131 27.0295 15.5488 27.0295 15.2885C27.0265 10.7447 27.0275 6.20181 27.0275 1.65798V1.04297V1.04493Z" fill="#E5E0EB"/>
</svg>
