<svg width="20" height="20" viewBox="0 0 20 20" fill="none" xmlns="http://www.w3.org/2000/svg">
<path d="M6.28261 14.168C4.06127 14.1738 2.17636 15.7149 1.74737 17.8421C1.66804 18.2373 1.65187 18.6384 1.65187 19.0394C1.65187 19.1702 1.64453 19.3053 1.6078 19.4302C1.4888 19.8254 1.09654 20.056 0.677833 19.9899C0.310547 19.9312 0.0167189 19.5874 0.00496577 19.201C-0.0214788 18.371 0.0534475 17.5542 0.332585 16.7653C0.964316 14.9745 2.15579 13.7081 3.90701 12.9736C4.71944 12.6328 5.57155 12.4815 6.45156 12.5167C8.01179 12.5784 9.37663 13.1352 10.5211 14.2003C11.5803 15.1875 12.2077 16.4098 12.4339 17.8377C12.5059 18.2902 12.5206 18.7456 12.503 19.2025C12.4868 19.6021 12.1783 19.9444 11.8095 19.9929C11.3218 20.0575 10.9648 19.7402 10.8854 19.3979C10.8546 19.2657 10.8472 19.1261 10.8472 18.9895C10.8487 18.5649 10.8399 18.1404 10.7297 17.729C10.242 15.9 9.08427 14.7409 7.24196 14.2796C7.06713 14.2355 6.88643 14.2106 6.70573 14.19C6.55294 14.1724 6.39867 14.1738 6.28555 14.168H6.28261Z" fill="#EFF6FF"/>
<path d="M6.25369 10.8307C4.17339 10.8263 2.51619 9.15007 2.50591 7.10364C2.49562 5.08806 4.09111 3.34279 6.24782 3.33985C8.39276 3.33691 9.98531 5.06308 9.99854 7.0625C10.0118 9.07221 8.39717 10.8116 6.25516 10.8292L6.25369 10.8307ZM6.25516 4.99844C5.18563 4.98228 4.16898 5.83435 4.1631 7.0772C4.15723 8.28478 5.12686 9.1677 6.24047 9.17505C7.3438 9.18092 8.34134 8.32004 8.34134 7.08454C8.34134 5.82994 7.31882 4.98522 6.25663 4.99844H6.25516Z" fill="#EFF6FF"/>
<path d="M10.8457 3.72587C10.8721 1.63243 12.5617 -0.0246958 14.6478 0.000278611C16.7193 0.025253 18.3898 1.7382 18.3383 3.83312C18.284 5.98386 16.5063 7.52052 14.5391 7.49114C12.5205 7.46028 10.8428 5.81785 10.8472 3.72587H10.8457ZM16.6782 3.75085C16.7061 2.68282 15.8202 1.66475 14.5994 1.66034C13.4402 1.65447 12.5014 2.59174 12.5029 3.75379C12.5044 4.90408 13.4431 5.84723 14.5935 5.83842C15.8555 5.82813 16.7032 4.78802 16.6782 3.75232V3.75085Z" fill="#EFF6FF"/>
<path d="M13.9986 9.17578C15.4163 9.17578 16.5828 9.54893 17.6185 10.304C18.4574 10.9152 19.0877 11.7026 19.5093 12.656C19.8311 13.3847 19.9956 14.1486 20 14.9434C20 15.0727 19.9839 15.2108 19.9369 15.3298C19.8032 15.6765 19.4212 15.8821 19.0568 15.8263C18.6807 15.7676 18.3825 15.4576 18.3619 15.0756C18.3414 14.6966 18.3164 14.3176 18.2121 13.9503C17.8154 12.5532 16.9457 11.566 15.5735 11.0856C14.1029 10.5714 12.7366 10.8256 11.5098 11.7952C11.407 11.876 11.3042 11.9641 11.1881 12.0229C10.8429 12.1992 10.408 12.0934 10.1817 11.7893C9.93786 11.4617 9.93493 11.0239 10.217 10.7462C10.4462 10.52 10.7077 10.3217 10.9751 10.1395C11.667 9.66939 12.4383 9.38439 13.2611 9.24924C13.5475 9.20222 13.8399 9.19047 13.9986 9.17578Z" fill="#EFF6FF"/>
</svg>