<svg width="20" height="20" viewBox="0 0 20 20" fill="none" xmlns="http://www.w3.org/2000/svg">
<path d="M10.8311 8.20787C11.027 8.12745 11.1822 8.06029 11.3401 7.99997C12.4571 7.57134 13.6153 7.45028 14.802 7.52942C15.5376 7.57861 16.2561 7.70823 16.9472 7.96874C17.587 8.21001 18.1759 8.53255 18.6322 9.05914C18.991 9.47322 19.1762 9.94549 19.1741 10.502C19.1664 12.6383 19.1587 14.7746 19.1775 16.9109C19.1844 17.6796 18.8803 18.27 18.3213 18.7589C17.9133 19.1157 17.4378 19.3548 16.934 19.54C15.8464 19.9391 14.7199 20.0465 13.5716 19.9798C12.8429 19.9374 12.1325 19.8023 11.4448 19.5537C10.9184 19.3634 10.4325 19.1007 10.0092 18.7392C9.98777 18.7422 9.97066 18.7392 9.96083 18.7469C9.34627 19.2201 8.64532 19.5079 7.9016 19.6979C6.86579 19.9622 5.81287 20.0448 4.74626 19.9755C4.03334 19.9293 3.33154 19.8254 2.64641 19.6213C2.0635 19.4481 1.50582 19.2179 1.01186 18.8547C0.632522 18.5758 0.320324 18.24 0.138137 17.7986C0.0419115 17.565 0.000427668 17.3195 0.000427668 17.0683C0 12.6319 0 8.19546 0 3.75902C0 3.19479 0.224526 2.72423 0.612421 2.32427C1.03282 1.8905 1.54987 1.60988 2.10498 1.39471C2.89403 1.08928 3.71772 0.940844 4.55852 0.869406C5.1641 0.818073 5.76796 0.818928 6.3714 0.87625C7.36916 0.971216 8.34125 1.1697 9.24448 1.62785C9.66702 1.84216 10.0519 2.10909 10.3568 2.47741C10.6673 2.85257 10.8316 3.28205 10.8311 3.77271C10.8298 5.16126 10.8311 6.54982 10.8311 7.93837C10.8311 8.0158 10.8311 8.0928 10.8311 8.20701V8.20787ZM5.42412 5.02951C5.91252 4.98117 6.40305 4.9508 6.88803 4.88021C7.45341 4.79808 8.0021 4.63938 8.50804 4.36731C8.69963 4.26422 8.88054 4.12947 9.04048 3.98146C9.22994 3.8065 9.21711 3.6756 9.03621 3.48909C8.84504 3.29146 8.61153 3.15629 8.36434 3.0425C7.54193 2.66306 6.66607 2.52917 5.77181 2.48981C5.23039 2.46629 4.68981 2.49495 4.15266 2.56981C3.50004 2.66092 2.86666 2.82262 2.2846 3.13789C2.09386 3.24098 1.91767 3.38301 1.76071 3.53401C1.60846 3.67988 1.6183 3.78469 1.75387 3.94467C1.8223 4.02509 1.89799 4.10894 1.9878 4.1607C2.2273 4.29887 2.46765 4.44175 2.72254 4.54527C3.58643 4.89604 4.49693 4.994 5.42369 5.02951H5.42412ZM14.2521 11.681C14.4146 11.6716 14.6566 11.6656 14.897 11.6412C15.5299 11.5774 16.1471 11.4457 16.7244 11.1672C16.9622 11.0526 17.188 10.9182 17.3672 10.7172C17.5639 10.496 17.5673 10.339 17.3732 10.1183C17.3313 10.0704 17.2864 10.0212 17.2333 9.98741C17.0357 9.8625 16.8433 9.7239 16.632 9.62594C16.038 9.35045 15.4038 9.23153 14.7541 9.17977C13.8282 9.10619 12.9216 9.19218 12.0406 9.49376C11.654 9.62594 11.2892 9.80133 10.9979 10.0982C10.7777 10.3228 10.7811 10.4977 10.9945 10.727C11.1976 10.9452 11.4495 11.0906 11.7173 11.2091C12.499 11.5539 13.3261 11.666 14.2516 11.6805L14.2521 11.681ZM9.16793 5.92527C6.66094 6.90487 4.16292 6.9023 1.64909 5.92099C1.64909 6.2585 1.66192 6.5789 1.64481 6.89717C1.63241 7.12988 1.72051 7.30484 1.89714 7.42846C2.09429 7.56621 2.30043 7.69753 2.51811 7.79763C3.20452 8.1129 3.93712 8.24637 4.68511 8.31011C5.30437 8.36272 5.9215 8.34561 6.53777 8.26904C7.17585 8.1899 7.79982 8.05045 8.38016 7.76683C8.60127 7.65903 8.80313 7.50803 9.00285 7.36259C9.13585 7.26548 9.1876 7.12175 9.18204 6.95021C9.17306 6.66574 9.18033 6.38127 9.17905 6.09638C9.17905 6.04119 9.17178 5.98601 9.1675 5.92484L9.16793 5.92527ZM1.64909 9.23068C1.64909 9.60541 1.65764 9.9395 1.64567 10.2732C1.63883 10.4631 1.70212 10.615 1.84753 10.7193C2.04853 10.8639 2.25381 11.0106 2.4762 11.1172C3.14593 11.438 3.86655 11.5732 4.59957 11.639C5.26075 11.6989 5.92235 11.6857 6.58182 11.6001C7.19167 11.521 7.78913 11.3892 8.34552 11.1219C8.5739 11.0119 8.78303 10.8584 8.99087 10.7108C9.13243 10.6107 9.19017 10.4622 9.18204 10.2821C9.17178 10.0546 9.17948 9.82656 9.17948 9.59856C9.17948 9.48777 9.17948 9.37697 9.17948 9.23025C7.9649 9.78849 6.71311 9.98784 5.42968 9.98955C4.13769 9.99126 2.87864 9.79234 1.64866 9.23025L1.64909 9.23068ZM1.64909 12.5682C1.64909 12.9519 1.65679 13.286 1.6461 13.6192C1.64054 13.8006 1.70255 13.9456 1.83897 14.0478C2.02031 14.183 2.2072 14.3173 2.4082 14.4191C3.07793 14.7584 3.80411 14.8987 4.54312 14.9727C5.3326 15.0514 6.12122 15.0249 6.90428 14.8893C7.46709 14.7917 8.0175 14.6471 8.52129 14.37C8.70605 14.2681 8.87369 14.1317 9.0392 13.9991C9.13585 13.9216 9.18204 13.81 9.18033 13.6782C9.17605 13.351 9.17905 13.0233 9.17777 12.6961C9.17777 12.6648 9.16579 12.6332 9.15467 12.5784C7.95677 13.1273 6.70499 13.3258 5.42198 13.3266C4.13213 13.3275 2.8735 13.1277 1.64823 12.5682H1.64909ZM1.65037 15.9027C1.65037 16.324 1.64353 16.694 1.6555 17.0632C1.65807 17.1462 1.70811 17.248 1.76969 17.3049C1.9151 17.4388 2.06906 17.5706 2.2397 17.6672C2.84271 18.0082 3.50432 18.1741 4.18559 18.2661C4.8797 18.3598 5.57551 18.3778 6.27347 18.3097C6.99324 18.2392 7.69461 18.098 8.35493 17.793C8.60768 17.6762 8.85488 17.5449 9.04048 17.331C9.1025 17.2596 9.16793 17.1616 9.17135 17.0735C9.18589 16.6979 9.17734 16.321 9.17734 15.9048C8.36904 16.2723 7.54878 16.4866 6.69772 16.5862C5.84494 16.6859 4.99346 16.6859 4.14111 16.5867C3.28877 16.4879 2.46765 16.2757 1.65037 15.9031V15.9027ZM10.8311 15.9775C10.8311 16.3176 10.8401 16.6372 10.8281 16.9558C10.82 17.1676 10.9008 17.3259 11.051 17.4619C11.2755 17.6651 11.5351 17.8105 11.8126 17.9248C12.4242 18.1763 13.0657 18.2961 13.7222 18.335C14.6917 18.3927 15.6424 18.2931 16.5461 17.9166C16.7988 17.8114 17.0328 17.6535 17.259 17.4961C17.4412 17.3695 17.5421 17.186 17.5224 16.946C17.5079 16.7693 17.5194 16.5905 17.5194 16.4126C17.5194 16.2723 17.5194 16.132 17.5194 15.978C15.2853 16.8985 13.0751 16.8998 10.8307 15.9775H10.8311ZM17.5173 12.64C15.2738 13.5645 13.0636 13.5623 10.8311 12.6388C10.8311 12.9519 10.8474 13.2505 10.8264 13.5461C10.8068 13.8258 10.9154 14.0273 11.1249 14.1899C11.2092 14.2553 11.296 14.3182 11.3871 14.3725C11.8451 14.6459 12.3476 14.7964 12.8681 14.8918C13.5511 15.0172 14.2388 15.048 14.9295 14.9735C15.4974 14.9124 16.0538 14.7986 16.5803 14.5693C16.8484 14.4525 17.1072 14.3169 17.318 14.1082C17.4147 14.0123 17.513 13.9092 17.5156 13.7651C17.522 13.3963 17.5177 13.0272 17.5177 12.64H17.5173Z" fill="#EFF6FF"/>
<path d="M13.3583 5.80109C13.3472 5.62185 13.4396 5.4409 13.5568 5.26594C14.1307 4.40911 14.7025 3.55057 15.2751 2.69245C15.761 1.96481 16.2464 1.23674 16.7322 0.509522C16.7797 0.438512 16.8276 0.367501 16.8823 0.30248C17.1517 -0.0192063 17.6106 -0.089789 17.9613 0.133937C18.3018 0.351246 18.4309 0.818803 18.2517 1.19011C18.2303 1.23503 18.2055 1.27866 18.1782 1.31973C17.0773 2.97093 15.9761 4.62214 14.874 6.27292C14.7076 6.52189 14.472 6.64936 14.173 6.6515C13.7214 6.65492 13.3609 6.29345 13.3583 5.80066V5.80109Z" fill="#EFF6FF"/>
<path d="M11.6885 1.24825C11.6602 0.568943 12.262 -0.00170726 12.9278 3.83809e-06C13.5309 0.00128716 14.1625 0.498788 14.1647 1.23456C14.1668 1.92584 13.6091 2.4858 12.9201 2.48366C12.235 2.48109 11.6906 1.93525 11.688 1.24825H11.6885Z" fill="#EFF6FF"/>
<path d="M19.9998 5.41325C19.9985 6.11352 19.4486 6.65808 18.751 6.64952C18.0668 6.64096 17.5194 6.08828 17.5215 5.40769C17.5236 4.72197 18.0911 4.16287 18.778 4.168C19.4387 4.17271 20.0204 4.72668 19.9998 5.41325Z" fill="#EFF6FF"/>
</svg>
