<svg width="21" height="18" viewBox="0 0 21 18" fill="none" xmlns="http://www.w3.org/2000/svg">
<path d="M18.3794 7.34035C18.62 7.35361 18.8202 7.35843 19.0191 7.3761C20.0247 7.46527 20.8496 8.22721 20.9827 9.16709C21.0253 9.46632 20.9849 9.75311 20.9088 10.0391C20.4719 11.6783 20.06 13.3238 19.5848 14.9534C19.1733 16.3652 18.1994 17.3243 16.7048 17.7995C16.2542 17.9429 15.7868 17.9991 15.3125 17.9991C11.6863 18.0003 8.06007 17.9999 4.43386 17.9999C2.33571 17.9999 0.78573 16.7492 0.225967 15.2128C0.0773272 14.8052 0.000429596 14.385 0.000429596 13.954C0 10.4038 0 6.85395 0 3.3041C0 1.85813 0.937378 0.630667 2.40187 0.163138C2.71418 0.0635267 3.0381 0.00568807 3.36932 0.00367979C4.02016 -0.000738442 4.67099 -0.00154176 5.32183 0.00327813C5.74455 0.00608973 6.13591 0.126989 6.51138 0.303316C7.36069 0.702162 8.21387 1.09418 9.06146 1.49584C9.27196 1.59545 9.48633 1.64043 9.72046 1.64003C11.1437 1.63762 12.567 1.63722 13.9902 1.63963C15.1596 1.64124 16.1747 2.01879 17.018 2.77271C17.9395 3.59691 18.3755 4.62113 18.3794 5.80923C18.3807 6.24383 18.3794 6.67842 18.3798 7.11301C18.3798 7.18451 18.3798 7.25641 18.3798 7.34075L18.3794 7.34035ZM3.82297 16.331C4.04164 16.3463 4.22507 16.3696 4.40894 16.3696C8.05578 16.3716 11.7026 16.3732 15.349 16.37C16.6168 16.3688 17.6297 15.6165 17.9348 14.4678C18.1981 13.4765 18.4653 12.486 18.7304 11.4947C18.9001 10.8601 19.0685 10.2247 19.2399 9.59044C19.285 9.42295 19.2635 9.27072 19.1423 9.13937C19.0212 9.00763 18.8588 8.9767 18.678 8.97711C14.974 8.97911 11.27 8.97791 7.56604 8.98112C7.40365 8.98112 7.23568 9.0004 7.07931 9.04097C6.42503 9.21047 6.02379 9.61815 5.82703 10.2202C5.25954 11.957 4.68603 13.6922 4.1151 15.4281C4.02101 15.7145 3.92908 16.0017 3.82211 16.3302L3.82297 16.331ZM16.6284 7.35361C16.6339 7.27127 16.64 7.22548 16.64 7.17969C16.64 6.67842 16.6584 6.17635 16.6357 5.67588C16.5914 4.70106 16.1008 3.97647 15.1755 3.51858C14.7678 3.31695 14.3253 3.25831 13.8682 3.25911C12.5094 3.26233 11.151 3.2563 9.7922 3.26192C9.23759 3.26433 8.7195 3.15749 8.22461 2.91851C7.40623 2.52287 6.58012 2.14009 5.75271 1.76093C5.60236 1.69225 5.42966 1.63361 5.26555 1.62959C4.64393 1.61513 4.02101 1.60951 3.39939 1.63039C2.46545 1.66172 1.73771 2.37948 1.73686 3.25469C1.73428 6.79731 1.73514 10.3399 1.73771 13.8825C1.73771 14.0484 1.75447 14.2167 1.78626 14.3802C1.85843 14.7529 2.01223 15.0935 2.30048 15.4137C2.33829 15.3104 2.36922 15.2317 2.39543 15.1518C2.99471 13.3263 3.58927 11.4995 4.19414 9.67559C4.4781 8.81966 5.0499 8.1754 5.89276 7.74482C6.44522 7.46246 7.0415 7.352 7.66699 7.3524C10.556 7.35361 13.4451 7.3528 16.3337 7.3528C16.4252 7.3528 16.5167 7.3528 16.6284 7.3528V7.35361Z" fill="#969696"/>
</svg>
