<svg width="548" height="444" viewBox="0 0 548 444" fill="none" xmlns="http://www.w3.org/2000/svg">
<path d="M291.455 430.773L251.088 361.023H170.372" stroke="#9C9B9B" stroke-width="0.5" stroke-miterlimit="10"/>
<path d="M290.927 430.773H371.652L412.01 361.024L371.652 291.266H290.927L250.569 361.024" stroke="#9C9B9B" stroke-width="0.5" stroke-miterlimit="10"/>
<path d="M371.736 291.238L412.094 221.489L371.736 151.73H291.011L250.653 221.489L291.011 291.238H371.736Z" stroke="#9C9B9B" stroke-width="0.5" stroke-miterlimit="10"/>
<path d="M170.42 361.21L130.062 291.461H49.337" stroke="#9C9B9B" stroke-width="0.5" stroke-miterlimit="10"/>
<path d="M250.625 361.21L290.982 291.46L250.625 221.711H169.9L129.532 291.46" stroke="#9C9B9B" stroke-width="0.5" stroke-miterlimit="10"/>
<path d="M169.975 82.168L129.617 151.927L169.975 221.676" stroke="#9C9B9B" stroke-width="0.5" stroke-miterlimit="10"/>
<path d="M49.2246 291.339L8.86672 221.59" stroke="#9C9B9B" stroke-width="0.5" stroke-miterlimit="10"/>
<path d="M129.42 151.844H48.7042L8.33705 221.593" stroke="#9C9B9B" stroke-width="0.5" stroke-miterlimit="10"/>
<path d="M290.982 12.4453L250.615 82.1946H169.9" stroke="#9C9B9B" stroke-width="0.5" stroke-miterlimit="10"/>
<path d="M493.254 221.731L533.621 151.981L493.254 82.2227H412.538L372.171 151.981" stroke="#9C9B9B" stroke-width="0.5" stroke-miterlimit="10"/>
<path d="M372.255 12.4453L412.612 82.1946H493.337L533.695 12.4453" stroke="#9C9B9B" stroke-width="0.5" stroke-miterlimit="10"/>
<path d="M250.978 82.1133L291.336 151.863" stroke="#9C9B9B" stroke-width="0.5" stroke-miterlimit="10"/>
<path d="M412.418 82.1101L372.06 12.3516H291.335" stroke="#9C9B9B" stroke-width="0.5" stroke-miterlimit="10"/>
<path d="M412.261 361.266H492.986L533.344 291.516L492.986 221.758H412.261" stroke="#9C9B9B" stroke-width="0.5" stroke-miterlimit="10"/>
<path d="M299.49 442.765L306.141 431.273L299.49 419.781H286.189L279.539 431.273L286.189 442.765H299.49Z" fill="#F6F7FB" stroke="#9C9B9B" stroke-width="0.5" stroke-miterlimit="10"/>
<path d="M419.152 373.13L425.803 361.629L419.152 350.137H405.851L399.201 361.629L405.851 373.13H419.152Z" fill="#F6F7FB" stroke="#9C9B9B" stroke-width="0.5" stroke-miterlimit="10"/>
<path d="M375.303 437.79L379.139 431.163L375.303 424.527H367.63L363.794 431.163L367.63 437.79H375.303Z" fill="#F6F7FB" stroke="#9C9B9B" stroke-width="0.5" stroke-miterlimit="10"/>
<path d="M254.09 366.106L257.926 359.479L254.09 352.844H246.418L242.581 359.479L246.418 366.106H254.09Z" fill="#F6F7FB" stroke="#9C9B9B" stroke-width="0.5" stroke-miterlimit="10"/>
<path d="M299.314 301.84L305.965 290.348L299.314 278.855H286.013L279.363 290.348L286.013 301.84H299.314Z" fill="#F6F7FB" stroke="#9C9B9B" stroke-width="0.5" stroke-miterlimit="10"/>
<path d="M418.976 233.445L425.627 221.953L418.976 210.461H405.676L399.025 221.953L405.676 233.445H418.976Z" fill="#F6F7FB" stroke="#9C9B9B" stroke-width="0.5" stroke-miterlimit="10"/>
<path d="M375.125 296.864L378.961 290.228L375.125 283.602H367.453L363.617 290.228L367.453 296.864H375.125Z" fill="#F6F7FB" stroke="#9C9B9B" stroke-width="0.5" stroke-miterlimit="10"/>
<path d="M496.793 228.403L500.629 221.776L496.793 215.141H489.121L485.285 221.776L489.121 228.403H496.793Z" fill="#F6F7FB" stroke="#9C9B9B" stroke-width="0.5" stroke-miterlimit="10"/>
<path d="M254.424 227.895L258.26 221.269L254.424 214.633H246.751L242.915 221.269L246.751 227.895H254.424Z" fill="#F6F7FB" stroke="#9C9B9B" stroke-width="0.5" stroke-miterlimit="10"/>
<path d="M298.394 162.379L305.045 150.887L298.394 139.395H285.094L278.443 150.887L285.094 162.379H298.394Z" fill="#F6F7FB" stroke="#9C9B9B" stroke-width="0.5" stroke-miterlimit="10"/>
<path d="M419.31 93.9841L425.961 82.4921L419.31 71H406.01L399.359 82.4921L406.01 93.9841H419.31Z" fill="#F6F7FB" stroke="#9C9B9B" stroke-width="0.5" stroke-miterlimit="10"/>
<path d="M375.459 158.644L379.295 152.017L375.459 145.391H367.787L363.951 152.017L367.787 158.644H375.459Z" fill="#F6F7FB" stroke="#9C9B9B" stroke-width="0.5" stroke-miterlimit="10"/>
<path d="M497.129 87.6919L500.965 81.0654L497.129 74.4297H489.457L485.62 81.0654L489.457 87.6919H497.129Z" fill="#F6F7FB" stroke="#9C9B9B" stroke-width="0.5" stroke-miterlimit="10"/>
<path d="M540.078 162.582L546.729 151.09L540.078 139.598H526.777L520.127 151.09L526.777 162.582H540.078Z" fill="#F6F7FB" stroke="#9C9B9B" stroke-width="0.5" stroke-miterlimit="10"/>
<path d="M56.5546 301.898L63.2051 290.406L56.5546 278.914H43.2537L36.6032 290.406L43.2537 301.898H56.5546Z" fill="#F6F7FB" stroke="#9C9B9B" stroke-width="0.5" stroke-miterlimit="10"/>
<path d="M133.117 298.106L136.953 291.47L133.117 284.844H125.445L121.609 291.47L125.445 298.106H133.117Z" fill="#F6F7FB" stroke="#9C9B9B" stroke-width="0.5" stroke-miterlimit="10"/>
<path d="M177.32 371.75L183.971 360.258L177.32 348.766H164.019L157.369 360.258L164.019 371.75H177.32Z" fill="#F6F7FB" stroke="#9C9B9B" stroke-width="0.5" stroke-miterlimit="10"/>
<path d="M56.3593 162.73L63.0098 151.238L56.3593 139.746H43.0584L36.4079 151.238L43.0584 162.73H56.3593Z" fill="#F6F7FB" stroke="#9C9B9B" stroke-width="0.5" stroke-miterlimit="10"/>
<path d="M12.5077 226.153L16.3438 219.517L12.5077 212.891H4.83547L0.999382 219.517L4.83547 226.153H12.5077Z" fill="#F6F7FB" stroke="#9C9B9B" stroke-width="0.5" stroke-miterlimit="10"/>
<path d="M132.931 157.692L136.768 151.065L132.931 144.43H125.25L121.414 151.065L125.25 157.692H132.931Z" fill="#F6F7FB" stroke="#9C9B9B" stroke-width="0.5" stroke-miterlimit="10"/>
<path d="M177.125 232.591L183.775 221.09L177.125 209.598H163.824L157.174 221.09L163.824 232.591H177.125Z" fill="#F6F7FB" stroke="#9C9B9B" stroke-width="0.5" stroke-miterlimit="10"/>
<path d="M254.424 88.2544L258.26 81.6187L254.424 74.9922H246.751L242.915 81.6187L246.751 88.2544H254.424Z" fill="#F6F7FB" stroke="#9C9B9B" stroke-width="0.5" stroke-miterlimit="10"/>
<path d="M298.394 23.9841L305.045 12.492L298.394 1H285.094L278.443 12.492L285.094 23.9841H298.394Z" fill="#F6F7FB" stroke="#9C9B9B" stroke-width="0.5" stroke-miterlimit="10"/>
<path d="M375.459 19.0083L379.295 12.3726L375.459 5.74609H367.787L363.951 12.3726L367.787 19.0083H375.459Z" fill="#F6F7FB" stroke="#9C9B9B" stroke-width="0.5" stroke-miterlimit="10"/>
<path d="M176.326 93.3449L182.977 81.8529L176.326 70.3516H163.025L156.375 81.8529L163.025 93.3449H176.326Z" fill="#F6F7FB" stroke="#9C9B9B" stroke-width="0.5" stroke-miterlimit="10"/>
<path d="M536.445 19.6943L540.281 13.0679L536.445 6.44141H528.773L524.937 13.0679L528.773 19.6943H536.445Z" fill="#F6F7FB" stroke="#9C9B9B" stroke-width="0.5" stroke-miterlimit="10"/>
<path d="M496.348 367.864L500.184 361.237L496.348 354.602H488.675L484.839 361.237L488.675 367.864H496.348Z" fill="#F6F7FB" stroke="#9C9B9B" stroke-width="0.5" stroke-miterlimit="10"/>
<path d="M539.742 303.297L546.393 291.805L539.742 280.312H526.441L519.791 291.805L526.441 303.297H539.742Z" fill="#F6F7FB" stroke="#9C9B9B" stroke-width="0.5" stroke-miterlimit="10"/>
</svg>
