<svg width="24" height="24" viewBox="0 0 24 24" fill="none" xmlns="http://www.w3.org/2000/svg">
<g clip-path="url(#clip0_2978_37264)">
<path fill-rule="evenodd" clip-rule="evenodd" d="M12 1.5C9.21523 1.5 6.54451 2.60625 4.57538 4.57538C2.60625 6.54451 1.5 9.21523 1.5 12C1.5 14.7848 2.60625 17.4555 4.57538 19.4246C6.54451 21.3938 9.21523 22.5 12 22.5C14.7848 22.5 17.4555 21.3938 19.4246 19.4246C21.3938 17.4555 22.5 14.7848 22.5 12C22.5 9.21523 21.3938 6.54451 19.4246 4.57538C17.4555 2.60625 14.7848 1.5 12 1.5ZM12 0C8.8174 0 5.76515 1.26428 3.51472 3.51472C1.26428 5.76515 0 8.8174 0 12C0 15.1826 1.26428 18.2348 3.51472 20.4853C5.76515 22.7357 8.8174 24 12 24C15.1826 24 18.2348 22.7357 20.4853 20.4853C22.7357 18.2348 24 15.1826 24 12C24 8.8174 22.7357 5.76515 20.4853 3.51472C18.2348 1.26428 15.1826 0 12 0Z" fill="#969696"/>
<path d="M13.4961 7.50031C13.4961 7.6973 13.4573 7.89235 13.3819 8.07434C13.3065 8.25633 13.196 8.42168 13.0568 8.56097C12.9175 8.70026 12.7521 8.81075 12.5701 8.88613C12.3881 8.96151 12.1931 9.00031 11.9961 9.00031C11.7991 9.00031 11.6041 8.96151 11.4221 8.88613C11.2401 8.81075 11.0747 8.70026 10.9354 8.56097C10.7961 8.42168 10.6857 8.25633 10.6103 8.07434C10.5349 7.89235 10.4961 7.6973 10.4961 7.50031C10.4961 7.10249 10.6541 6.72096 10.9354 6.43965C11.2167 6.15835 11.5983 6.00031 11.9961 6.00031C12.3939 6.00031 12.7754 6.15835 13.0568 6.43965C13.3381 6.72096 13.4961 7.10249 13.4961 7.50031ZM13.3491 16.5078C13.3691 16.6971 13.349 16.8884 13.2903 17.0694C13.2316 17.2504 13.1354 17.417 13.0081 17.5584C12.8808 17.6999 12.7252 17.813 12.5514 17.8904C12.3775 17.9678 12.1894 18.0078 11.9991 18.0078C11.8088 18.0078 11.6206 17.9678 11.4468 17.8904C11.273 17.813 11.1174 17.6999 10.9901 17.5584C10.8628 17.417 10.7666 17.2504 10.7079 17.0694C10.6492 16.8884 10.6291 16.6971 10.6491 16.5078L11.1741 11.2473C11.1917 11.0407 11.2863 10.8481 11.4391 10.7079C11.5918 10.5676 11.7917 10.4897 11.9991 10.4897C12.2065 10.4897 12.4064 10.5676 12.5591 10.7079C12.7119 10.8481 12.8065 11.0407 12.8241 11.2473L13.3491 16.5078Z" fill="#969696"/>
</g>
<defs>
<clipPath id="clip0_2978_37264">
<path d="M24 20C24 22.2091 22.2091 24 20 24L4 24C1.79086 24 0 22.2091 0 20L0 0L24 0L24 20Z" fill="white"/>
</clipPath>
</defs>
</svg>
