<svg width="40" height="35" viewBox="0 0 40 35" fill="none" xmlns="http://www.w3.org/2000/svg">
<path fill-rule="evenodd" clip-rule="evenodd" d="M8.10627 26.5863C8.33843 26.8185 8.61407 27.0028 8.91745 27.1285C9.22083 27.2542 9.54601 27.3189 9.8744 27.3189C10.2028 27.3189 10.528 27.2542 10.8313 27.1285C11.1347 27.0028 11.4104 26.8185 11.6425 26.5863L8.10627 23.0488C7.87383 23.281 7.68943 23.5567 7.56362 23.8602C7.43781 24.1637 7.37305 24.489 7.37305 24.8175C7.37305 25.1461 7.43781 25.4714 7.56362 25.7749C7.68943 26.0784 7.87383 26.3541 8.10627 26.5863ZM14.2275 11.3475L13.3213 12.2538C12.3438 13.2313 10.5588 14.52 9.31377 15.1425L5.54252 17.0288C4.92377 17.3388 4.81252 17.9963 5.30877 18.4925L16.0038 29.1875C16.5013 29.6825 17.1563 29.5788 17.4675 28.9525L19.355 25.1825C19.9725 23.9475 21.2625 22.1575 22.2438 21.175L23.15 20.2675C24.1791 19.2386 24.8208 17.8856 24.9666 16.4377C25.1124 14.9898 24.7533 13.536 23.95 12.3225C24.0844 12.2148 24.1954 12.0807 24.2761 11.9286C24.3567 11.7764 24.4054 11.6093 24.4191 11.4376C24.4328 11.2659 24.4112 11.0932 24.3556 10.9301C24.3001 10.7671 24.2117 10.6171 24.0961 10.4895C23.9804 10.3618 23.8398 10.2592 23.683 10.188C23.5262 10.1167 23.3565 10.0782 23.1842 10.075C23.012 10.0718 22.841 10.1038 22.6816 10.1692C22.5222 10.2345 22.3779 10.3318 22.2575 10.455C22.2288 10.4863 22.2 10.5163 22.175 10.5488C21.1419 9.86373 19.9297 9.49851 18.69 9.49878C17.8612 9.49779 17.0403 9.66049 16.2745 9.97753C15.5087 10.2946 14.8131 10.7597 14.2275 11.3463V11.3475Z" fill="#969696"/>
<rect x="13" y="0.5" width="27" height="16" rx="8" fill="#ED475B"/>
<path d="M22.3047 12.608C21.9447 12.608 21.5687 12.54 21.1767 12.404C20.7927 12.268 20.4487 12.072 20.1447 11.816C20.0567 11.752 19.9967 11.672 19.9647 11.576C19.9407 11.472 19.9407 11.376 19.9647 11.288C19.9887 11.192 20.0327 11.112 20.0967 11.048C20.1687 10.976 20.2527 10.936 20.3487 10.928C20.4447 10.92 20.5487 10.956 20.6607 11.036C20.9327 11.252 21.2087 11.408 21.4887 11.504C21.7687 11.6 22.0487 11.648 22.3287 11.648C22.8327 11.648 23.2607 11.524 23.6127 11.276C23.9647 11.02 24.2327 10.644 24.4167 10.148C24.6007 9.644 24.6927 9.024 24.6927 8.288V7.22H24.8127C24.7647 7.66 24.6327 8.044 24.4167 8.372C24.2007 8.692 23.9207 8.94 23.5767 9.116C23.2407 9.292 22.8607 9.38 22.4367 9.38C21.9407 9.38 21.5007 9.264 21.1167 9.032C20.7407 8.8 20.4407 8.484 20.2167 8.084C20.0007 7.676 19.8927 7.212 19.8927 6.692C19.8927 6.156 20.0087 5.68 20.2407 5.264C20.4727 4.848 20.7927 4.524 21.2007 4.292C21.6087 4.052 22.0767 3.932 22.6047 3.932C23.2847 3.932 23.8567 4.096 24.3207 4.424C24.7927 4.744 25.1527 5.216 25.4007 5.84C25.6487 6.456 25.7727 7.2 25.7727 8.072C25.7727 8.808 25.6927 9.456 25.5327 10.016C25.3807 10.576 25.1527 11.048 24.8487 11.432C24.5527 11.816 24.1887 12.108 23.7567 12.308C23.3327 12.508 22.8487 12.608 22.3047 12.608ZM22.6887 8.456C23.0247 8.456 23.3207 8.38 23.5767 8.228C23.8407 8.068 24.0447 7.852 24.1887 7.58C24.3327 7.308 24.4047 6.996 24.4047 6.644C24.4047 6.284 24.3327 5.972 24.1887 5.708C24.0447 5.436 23.8407 5.224 23.5767 5.072C23.3207 4.92 23.0247 4.844 22.6887 4.844C22.3447 4.844 22.0447 4.92 21.7887 5.072C21.5327 5.224 21.3287 5.436 21.1767 5.708C21.0327 5.972 20.9607 6.284 20.9607 6.644C20.9607 6.996 21.0327 7.308 21.1767 7.58C21.3287 7.852 21.5327 8.068 21.7887 8.228C22.0447 8.38 22.3447 8.456 22.6887 8.456ZM30.1 12.104C29.964 12.104 29.86 12.068 29.788 11.996C29.716 11.916 29.68 11.808 29.68 11.672V9.464H27.508C27.372 9.464 27.268 9.428 27.196 9.356C27.124 9.284 27.088 9.184 27.088 9.056C27.088 8.928 27.124 8.828 27.196 8.756C27.268 8.684 27.372 8.648 27.508 8.648H29.68V6.512C29.68 6.368 29.716 6.26 29.788 6.188C29.86 6.116 29.968 6.08 30.112 6.08C30.248 6.08 30.348 6.116 30.412 6.188C30.484 6.26 30.52 6.368 30.52 6.512V8.648H32.692C32.828 8.648 32.932 8.684 33.004 8.756C33.076 8.828 33.112 8.928 33.112 9.056C33.112 9.184 33.076 9.284 33.004 9.356C32.932 9.428 32.828 9.464 32.692 9.464H30.52V11.672C30.52 11.808 30.484 11.916 30.412 11.996C30.348 12.068 30.244 12.104 30.1 12.104Z" fill="white"/>
</svg>
