<svg width="26" height="26" viewBox="0 0 26 26" fill="none" xmlns="http://www.w3.org/2000/svg">
<path d="M19.3727 9.38534C18.8494 9.90866 18.5877 10.1703 18.3132 10.221C18.0387 10.2716 17.8585 10.0914 17.4982 9.73112L16.2689 8.5018C15.9086 8.14149 15.7284 7.96133 15.779 7.68682C15.8297 7.41231 16.0913 7.15065 16.6147 6.62733L16.898 6.34402C17.4213 5.8207 17.683 5.55904 17.9575 5.5084C18.232 5.45776 18.4121 5.63792 18.7725 5.99824L20.0018 7.22756C20.3621 7.58787 20.5422 7.76803 20.4916 8.04254C20.441 8.31705 20.1793 8.57871 19.656 9.10203L19.3727 9.38534Z" fill="#174D9C"/>
<path d="M6.69257 20.3884C6.06775 20.5036 5.75534 20.5613 5.59704 20.403C5.43873 20.2447 5.49636 19.9323 5.61163 19.3074L5.88969 17.8C5.93966 17.5292 5.96465 17.3937 6.03756 17.2626C6.11048 17.1315 6.22392 17.0181 6.4508 16.7912L13.393 9.84902C13.9163 9.3257 14.178 9.06404 14.4525 9.0134C14.727 8.96276 14.9071 9.14292 15.2674 9.50323L16.4968 10.7326C16.8571 11.0929 17.0372 11.273 16.9866 11.5475C16.936 11.822 16.6743 12.0837 16.151 12.607L9.20881 19.5492C8.98193 19.7761 8.86848 19.8895 8.73739 19.9624C8.60629 20.0353 8.47085 20.0603 8.19996 20.1103L6.69257 20.3884Z" fill="#174D9C"/>
</svg>
