<svg width="32" height="32" viewBox="0 0 32 32" fill="none" xmlns="http://www.w3.org/2000/svg">
<g clip-path="url(#clip0_81_4110)">
<path d="M16 9C14.6155 9 13.2622 9.41054 12.111 10.1797C10.9599 10.9489 10.0627 12.0421 9.53285 13.3212C9.00303 14.6003 8.86441 16.0078 9.13451 17.3656C9.4046 18.7235 10.0713 19.9708 11.0503 20.9497C12.0292 21.9287 13.2765 22.5954 14.6344 22.8655C15.9922 23.1356 17.3997 22.997 18.6788 22.4672C19.9579 21.9373 21.0511 21.0401 21.8203 19.889C22.5895 18.7378 23 17.3845 23 16C23 14.1435 22.2625 12.363 20.9498 11.0503C19.637 9.7375 17.8565 9 16 9ZM20.5719 13.6506L14.8231 19.395L11.4281 16C11.3121 15.884 11.2469 15.7266 11.2469 15.5625C11.2469 15.3984 11.3121 15.241 11.4281 15.125C11.5442 15.009 11.7015 14.9438 11.8656 14.9438C12.0297 14.9438 12.1871 15.009 12.3031 15.125L14.8319 17.6538L19.7056 12.7844C19.7631 12.7269 19.8313 12.6813 19.9064 12.6503C19.9814 12.6192 20.0619 12.6032 20.1431 12.6032C20.2244 12.6032 20.3048 12.6192 20.3799 12.6503C20.455 12.6813 20.5232 12.7269 20.5806 12.7844C20.6381 12.8418 20.6837 12.91 20.7148 12.9851C20.7458 13.0602 20.7618 13.1406 20.7618 13.2219C20.7618 13.3031 20.7458 13.3836 20.7148 13.4586C20.6837 13.5337 20.6381 13.6019 20.5806 13.6594L20.5719 13.6506Z" fill="#00C56B"/>
</g>
<circle opacity="0.2" cx="16" cy="16" r="15.5" fill="#00C56B" stroke="#00C56B"/>
<defs>
<clipPath id="clip0_81_4110">
<rect width="14" height="14" fill="white" transform="translate(9 9)"/>
</clipPath>
</defs>
</svg>
