<svg width="24" height="21" viewBox="0 0 24 21" fill="none" xmlns="http://www.w3.org/2000/svg">
<path d="M13.3226 10.4998L20.7836 4.03981C20.931 3.89074 21.0081 3.69899 20.9993 3.50287C20.9906 3.30675 20.8967 3.12071 20.7364 2.98193C20.5761 2.84315 20.3612 2.76185 20.1347 2.75427C19.9082 2.74669 19.6868 2.8134 19.5146 2.94107L12.0536 9.40108L4.59259 2.93327C4.42312 2.78654 4.19326 2.7041 3.95359 2.7041C3.71392 2.7041 3.48406 2.78654 3.31459 2.93327C3.14512 3.08001 3.04991 3.27903 3.04991 3.48654C3.04991 3.69406 3.14512 3.89308 3.31459 4.03981L10.7846 10.4998L3.31459 16.9598C3.22038 17.0297 3.14386 17.1157 3.08984 17.2123C3.03582 17.309 3.00546 17.4143 3.00067 17.5216C2.99588 17.629 3.01677 17.736 3.06202 17.836C3.10726 17.936 3.17589 18.0268 3.2636 18.1027C3.35131 18.1787 3.45621 18.2381 3.5717 18.2773C3.68719 18.3164 3.81079 18.3345 3.93474 18.3304C4.05868 18.3262 4.1803 18.3 4.29196 18.2532C4.40362 18.2064 4.50291 18.1402 4.58359 18.0586L12.0536 11.5986L19.5146 18.0586C19.6868 18.1862 19.9082 18.253 20.1347 18.2454C20.3612 18.2378 20.5761 18.1565 20.7364 18.0177C20.8967 17.8789 20.9906 17.6929 20.9993 17.4968C21.0081 17.3007 20.931 17.1089 20.7836 16.9598L13.3226 10.4998Z" fill="#174D9C"/>
</svg>
